<svg xmlns="http://www.w3.org/2000/svg" xmlns:xlink="http://www.w3.org/1999/xlink" width="250" zoomAndPan="magnify" viewBox="0 0 187.5 52.499999" height="70" preserveAspectRatio="xMidYMid meet" version="1.0"><defs><g/></defs><g fill="#eeebe9" fill-opacity="1"><g transform="translate(5.444724, 34.546474)"><g><path d="M 13.515625 -24.546875 L 9.6875 -14.4375 C 11.675781 -14.382812 13.382812 -14.035156 14.8125 -13.390625 C 16.25 -12.742188 17.375 -12.039062 18.1875 -11.28125 Z M 19.1875 -27.703125 L 19.1875 -27.3125 C 18.375 -27.09375 17.96875 -26.585938 17.96875 -25.796875 C 17.96875 -25.710938 17.988281 -25.550781 18.03125 -25.3125 C 18.070312 -25.082031 18.164062 -24.738281 18.3125 -24.28125 L 25.546875 -3.453125 C 25.828125 -2.640625 26.117188 -1.972656 26.421875 -1.453125 C 26.734375 -0.929688 27.300781 -0.570312 28.125 -0.375 L 28.125 0 L 18.5625 0 L 18.5625 -0.375 C 19.175781 -0.519531 19.671875 -0.820312 20.046875 -1.28125 C 20.429688 -1.75 20.625 -2.429688 20.625 -3.328125 C 20.625 -4.140625 20.398438 -5.070312 19.953125 -6.125 C 19.503906 -7.175781 18.804688 -8.171875 17.859375 -9.109375 C 16.921875 -10.054688 15.726562 -10.863281 14.28125 -11.53125 C 12.84375 -12.207031 11.128906 -12.5625 9.140625 -12.59375 L 6.609375 -5.640625 C 6.273438 -4.679688 6.078125 -3.976562 6.015625 -3.53125 C 5.960938 -3.082031 5.9375 -2.789062 5.9375 -2.65625 C 5.9375 -1.945312 6.171875 -1.40625 6.640625 -1.03125 C 7.117188 -0.65625 7.65625 -0.4375 8.25 -0.375 L 8.25 0 L -0.34375 0 L -0.34375 -0.375 C 0 -0.457031 0.320312 -0.554688 0.625 -0.671875 C 0.9375 -0.785156 1.242188 -1.023438 1.546875 -1.390625 C 1.859375 -1.753906 2.195312 -2.269531 2.5625 -2.9375 C 2.925781 -3.613281 3.332031 -4.554688 3.78125 -5.765625 L 10.53125 -23.53125 C 10.695312 -24.007812 10.84375 -24.4375 10.96875 -24.8125 C 11.09375 -25.1875 11.15625 -25.570312 11.15625 -25.96875 C 11.15625 -26.363281 11.015625 -26.671875 10.734375 -26.890625 C 10.453125 -27.117188 10.15625 -27.257812 9.84375 -27.3125 L 9.84375 -27.703125 Z M 19.1875 -27.703125 "/></g></g></g><g fill="#eeebe9" fill-opacity="1"><g transform="translate(32.383133, 34.546474)"><g><path d="M 11.234375 -19.15625 C 10.785156 -19.15625 10.382812 -19.140625 10.03125 -19.109375 C 9.6875 -19.078125 9.289062 -19.035156 8.84375 -18.984375 L 8.84375 -4.96875 C 8.84375 -4.40625 8.890625 -3.941406 8.984375 -3.578125 C 9.085938 -3.210938 9.269531 -2.910156 9.53125 -2.671875 C 9.800781 -2.429688 10.171875 -2.257812 10.640625 -2.15625 C 11.117188 -2.0625 11.753906 -2.015625 12.546875 -2.015625 C 15.097656 -2.015625 17.0625 -2.75 18.4375 -4.21875 C 19.8125 -5.695312 20.5 -7.644531 20.5 -10.0625 C 20.5 -11.351562 20.265625 -12.550781 19.796875 -13.65625 C 19.335938 -14.769531 18.703125 -15.734375 17.890625 -16.546875 C 17.078125 -17.359375 16.101562 -17.992188 14.96875 -18.453125 C 13.832031 -18.921875 12.585938 -19.15625 11.234375 -19.15625 Z M 8.84375 -28.796875 L 8.84375 -21 C 10.101562 -21.082031 10.984375 -21.128906 11.484375 -21.140625 C 11.992188 -21.160156 12.375 -21.171875 12.625 -21.171875 C 14.507812 -21.171875 16.210938 -20.882812 17.734375 -20.3125 C 19.265625 -19.738281 20.570312 -18.9375 21.65625 -17.90625 C 22.738281 -16.882812 23.570312 -15.675781 24.15625 -14.28125 C 24.75 -12.894531 25.046875 -11.390625 25.046875 -9.765625 C 25.046875 -6.535156 24.023438 -4.097656 21.984375 -2.453125 C 19.953125 -0.816406 17.015625 0 13.171875 0 L 2.015625 0 L 2.015625 -0.375 C 3.085938 -0.519531 3.773438 -0.988281 4.078125 -1.78125 C 4.390625 -2.582031 4.546875 -3.570312 4.546875 -4.75 L 4.546875 -22.90625 C 4.546875 -24.46875 4.375 -25.59375 4.03125 -26.28125 C 3.695312 -26.96875 3.023438 -27.3125 2.015625 -27.3125 L 2.015625 -27.703125 Z M 8.84375 -28.796875 "/></g></g></g><g fill="#eeebe9" fill-opacity="1"><g transform="translate(58.47971, 34.546474)"><g><path d="M 12.921875 -19.15625 C 11.773438 -19.15625 10.78125 -18.9375 9.9375 -18.5 C 9.09375 -18.0625 8.40625 -17.46875 7.875 -16.71875 C 7.34375 -15.976562 6.945312 -15.117188 6.6875 -14.140625 C 6.4375 -13.160156 6.3125 -12.140625 6.3125 -11.078125 C 6.3125 -10.003906 6.4375 -8.90625 6.6875 -7.78125 C 6.945312 -6.664062 7.347656 -5.648438 7.890625 -4.734375 C 8.441406 -3.828125 9.148438 -3.078125 10.015625 -2.484375 C 10.890625 -1.890625 11.941406 -1.59375 13.171875 -1.59375 C 14.210938 -1.59375 15.140625 -1.832031 15.953125 -2.3125 C 16.765625 -2.789062 17.453125 -3.421875 18.015625 -4.203125 C 18.578125 -4.992188 19.003906 -5.894531 19.296875 -6.90625 C 19.585938 -7.914062 19.734375 -8.96875 19.734375 -10.0625 C 19.734375 -11.007812 19.628906 -12.015625 19.421875 -13.078125 C 19.210938 -14.148438 18.84375 -15.132812 18.3125 -16.03125 C 17.78125 -16.9375 17.078125 -17.679688 16.203125 -18.265625 C 15.335938 -18.859375 14.242188 -19.15625 12.921875 -19.15625 Z M 1.515625 -10.234375 C 1.515625 -11.910156 1.816406 -13.429688 2.421875 -14.796875 C 3.023438 -16.160156 3.851562 -17.3125 4.90625 -18.25 C 5.957031 -19.1875 7.191406 -19.90625 8.609375 -20.40625 C 10.023438 -20.914062 11.5625 -21.171875 13.21875 -21.171875 C 14.8125 -21.171875 16.296875 -20.9375 17.671875 -20.46875 C 19.046875 -20.007812 20.238281 -19.335938 21.25 -18.453125 C 22.257812 -17.566406 23.0625 -16.460938 23.65625 -15.140625 C 24.25 -13.828125 24.546875 -12.332031 24.546875 -10.65625 C 24.546875 -8.914062 24.234375 -7.359375 23.609375 -5.984375 C 22.992188 -4.609375 22.160156 -3.445312 21.109375 -2.5 C 20.054688 -1.5625 18.8125 -0.835938 17.375 -0.328125 C 15.945312 0.171875 14.421875 0.421875 12.796875 0.421875 C 11.191406 0.421875 9.703125 0.175781 8.328125 -0.3125 C 6.953125 -0.800781 5.757812 -1.5 4.75 -2.40625 C 3.738281 -3.320312 2.945312 -4.441406 2.375 -5.765625 C 1.800781 -7.085938 1.515625 -8.578125 1.515625 -10.234375 Z M 1.515625 -10.234375 "/></g></g></g><g fill="#eeebe9" fill-opacity="1"><g transform="translate(83.734454, 34.546474)"><g><path d="M 8.25 -20.75 L 8.25 -7.78125 C 8.25 -5.820312 8.476562 -4.457031 8.9375 -3.6875 C 9.40625 -2.914062 10.203125 -2.53125 11.328125 -2.53125 C 11.492188 -2.53125 11.75 -2.550781 12.09375 -2.59375 C 12.445312 -2.632812 12.847656 -2.738281 13.296875 -2.90625 C 13.742188 -3.070312 14.210938 -3.316406 14.703125 -3.640625 C 15.203125 -3.960938 15.6875 -4.40625 16.15625 -4.96875 C 16.5 -5.363281 16.789062 -5.769531 17.03125 -6.1875 C 17.269531 -6.601562 17.457031 -7.0625 17.59375 -7.5625 C 17.738281 -8.070312 17.84375 -8.644531 17.90625 -9.28125 C 17.976562 -9.914062 18.015625 -10.640625 18.015625 -11.453125 L 18.015625 -15.484375 C 18.015625 -16.078125 17.984375 -16.632812 17.921875 -17.15625 C 17.867188 -17.675781 17.75 -18.125 17.5625 -18.5 C 17.382812 -18.875 17.128906 -19.179688 16.796875 -19.421875 C 16.460938 -19.660156 16.023438 -19.796875 15.484375 -19.828125 L 15.484375 -20.203125 L 22.3125 -20.75 L 22.3125 -4.71875 C 22.3125 -3.28125 22.5 -2.203125 22.875 -1.484375 C 23.257812 -0.773438 23.941406 -0.40625 24.921875 -0.375 L 24.921875 0 L 18.859375 0 C 18.378906 -1.238281 18.097656 -2.671875 18.015625 -4.296875 C 17.367188 -3.703125 16.691406 -3.117188 15.984375 -2.546875 C 15.285156 -1.972656 14.554688 -1.46875 13.796875 -1.03125 C 13.046875 -0.59375 12.269531 -0.242188 11.46875 0.015625 C 10.664062 0.285156 9.847656 0.421875 9.015625 0.421875 C 7.296875 0.421875 6.019531 -0.0859375 5.1875 -1.109375 C 4.363281 -2.140625 3.953125 -3.648438 3.953125 -5.640625 L 3.953125 -15.484375 C 3.953125 -16.078125 3.921875 -16.625 3.859375 -17.125 C 3.804688 -17.632812 3.6875 -18.078125 3.5 -18.453125 C 3.320312 -18.835938 3.066406 -19.144531 2.734375 -19.375 C 2.398438 -19.613281 1.96875 -19.765625 1.4375 -19.828125 L 1.4375 -20.203125 Z M 8.25 -20.75 "/></g></g></g><g fill="#eeebe9" fill-opacity="1"><g transform="translate(108.989198, 34.546474)"><g><path d="M 7.109375 -28.03125 L 7.109375 -20.375 L 10.6875 -20.375 C 11.050781 -20.375 11.472656 -20.40625 11.953125 -20.46875 C 12.429688 -20.539062 12.835938 -20.75 13.171875 -21.09375 L 12 -18.09375 C 11.9375 -18.15625 11.800781 -18.25 11.59375 -18.375 C 11.382812 -18.5 11 -18.5625 10.4375 -18.5625 L 7.109375 -18.5625 L 7.109375 -6.0625 C 7.109375 -4.539062 7.335938 -3.484375 7.796875 -2.890625 C 8.265625 -2.304688 9.035156 -2.015625 10.109375 -2.015625 C 10.941406 -2.015625 11.679688 -2.179688 12.328125 -2.515625 C 12.972656 -2.859375 13.5625 -3.335938 14.09375 -3.953125 L 14.359375 -3.828125 L 12.921875 -0.375 C 12.109375 -0.125 11.257812 0.0664062 10.375 0.203125 C 9.488281 0.347656 8.597656 0.421875 7.703125 0.421875 C 6.972656 0.421875 6.304688 0.328125 5.703125 0.140625 C 5.097656 -0.0351562 4.582031 -0.347656 4.15625 -0.796875 C 3.738281 -1.242188 3.410156 -1.847656 3.171875 -2.609375 C 2.929688 -3.367188 2.8125 -4.320312 2.8125 -5.46875 L 2.8125 -18.5625 L 0.046875 -18.5625 L 0.046875 -18.9375 C 1.253906 -19.28125 2.144531 -19.957031 2.71875 -20.96875 C 3.289062 -21.976562 3.578125 -23.054688 3.578125 -24.203125 C 3.578125 -24.515625 3.554688 -24.835938 3.515625 -25.171875 C 3.472656 -25.503906 3.410156 -25.894531 3.328125 -26.34375 Z M 7.109375 -28.03125 "/></g></g></g><g fill="#eeebe9" fill-opacity="1"><g transform="translate(122.458367, 34.546474)"><g/></g></g><g fill="#eeebe9" fill-opacity="1"><g transform="translate(135.085702, 34.546474)"><g><path d="M 12.125 -27.703125 L 12.125 -27.3125 C 11.363281 -27.257812 10.757812 -27.148438 10.3125 -26.984375 C 9.863281 -26.816406 9.507812 -26.515625 9.25 -26.078125 C 9 -25.640625 8.828125 -25.035156 8.734375 -24.265625 C 8.640625 -23.492188 8.5625 -22.476562 8.5 -21.21875 L 7.953125 -10.5625 C 7.921875 -10.3125 7.90625 -10.003906 7.90625 -9.640625 C 7.90625 -9.273438 7.90625 -8.96875 7.90625 -8.71875 C 7.90625 -7.363281 8.070312 -6.269531 8.40625 -5.4375 C 8.75 -4.613281 9.257812 -3.925781 9.9375 -3.375 C 10.550781 -2.894531 11.304688 -2.515625 12.203125 -2.234375 C 13.097656 -1.953125 14 -1.8125 14.90625 -1.8125 C 15.65625 -1.8125 16.441406 -1.910156 17.265625 -2.109375 C 18.097656 -2.304688 18.9375 -2.640625 19.78125 -3.109375 C 20.625 -3.585938 21.3125 -4.269531 21.84375 -5.15625 C 22.375 -6.039062 22.640625 -7.269531 22.640625 -8.84375 C 22.640625 -9.144531 22.640625 -9.429688 22.640625 -9.703125 C 22.640625 -9.972656 22.628906 -10.332031 22.609375 -10.78125 L 22.140625 -21.515625 C 22.085938 -22.710938 22.003906 -23.679688 21.890625 -24.421875 C 21.773438 -25.171875 21.578125 -25.753906 21.296875 -26.171875 C 21.015625 -26.597656 20.640625 -26.890625 20.171875 -27.046875 C 19.710938 -27.203125 19.109375 -27.289062 18.359375 -27.3125 L 18.359375 -27.703125 L 27.3125 -27.703125 L 27.3125 -27.3125 L 27.109375 -27.28125 C 26.691406 -27.164062 26.332031 -27.046875 26.03125 -26.921875 C 25.738281 -26.796875 25.5 -26.59375 25.3125 -26.3125 C 25.132812 -26.03125 25.007812 -25.644531 24.9375 -25.15625 C 24.863281 -24.664062 24.828125 -24 24.828125 -23.15625 C 24.828125 -22.789062 24.828125 -22.429688 24.828125 -22.078125 C 24.828125 -21.722656 24.84375 -21.363281 24.875 -21 L 25.34375 -9.21875 C 25.34375 -7.613281 25.140625 -6.269531 24.734375 -5.1875 C 24.328125 -4.113281 23.71875 -3.195312 22.90625 -2.4375 C 22.257812 -1.851562 21.578125 -1.367188 20.859375 -0.984375 C 20.140625 -0.609375 19.414062 -0.300781 18.6875 -0.0625 C 17.957031 0.175781 17.226562 0.335938 16.5 0.421875 C 15.769531 0.503906 15.082031 0.546875 14.4375 0.546875 C 13.84375 0.546875 13.179688 0.507812 12.453125 0.4375 C 11.722656 0.375 10.988281 0.253906 10.25 0.078125 C 9.507812 -0.0859375 8.800781 -0.296875 8.125 -0.546875 C 7.445312 -0.796875 6.867188 -1.101562 6.390625 -1.46875 C 5.410156 -2.195312 4.660156 -3.039062 4.140625 -4 C 3.628906 -4.957031 3.375 -6.148438 3.375 -7.578125 C 3.375 -8.140625 3.378906 -8.835938 3.390625 -9.671875 C 3.398438 -10.515625 3.4375 -11.332031 3.5 -12.125 L 3.953125 -21.25 C 3.984375 -21.5625 4 -21.878906 4 -22.203125 C 4 -22.523438 4 -22.84375 4 -23.15625 C 4 -24 3.957031 -24.671875 3.875 -25.171875 C 3.789062 -25.679688 3.648438 -26.082031 3.453125 -26.375 C 3.253906 -26.664062 2.984375 -26.875 2.640625 -27 C 2.304688 -27.125 1.875 -27.226562 1.34375 -27.3125 L 1.34375 -27.703125 Z M 12.125 -27.703125 "/></g></g></g><g fill="#eeebe9" fill-opacity="1"><g transform="translate(162.865926, 34.546474)"><g><path d="M 2.0625 -15.609375 C 2.0625 -16.617188 2.304688 -17.484375 2.796875 -18.203125 C 3.285156 -18.921875 3.914062 -19.492188 4.6875 -19.921875 C 5.457031 -20.359375 6.304688 -20.675781 7.234375 -20.875 C 8.160156 -21.070312 9.0625 -21.171875 9.9375 -21.171875 C 10.78125 -21.171875 11.554688 -21.117188 12.265625 -21.015625 C 12.984375 -20.921875 13.628906 -20.8125 14.203125 -20.6875 C 14.773438 -20.5625 15.269531 -20.445312 15.6875 -20.34375 C 16.113281 -20.25 16.457031 -20.203125 16.71875 -20.203125 C 17.082031 -20.203125 17.414062 -20.316406 17.71875 -20.546875 L 18.015625 -14.015625 L 17.71875 -13.96875 C 17.582031 -14.789062 17.265625 -15.519531 16.765625 -16.15625 C 16.273438 -16.800781 15.691406 -17.34375 15.015625 -17.78125 C 14.347656 -18.21875 13.613281 -18.554688 12.8125 -18.796875 C 12.019531 -19.035156 11.226562 -19.15625 10.4375 -19.15625 C 10.019531 -19.15625 9.570312 -19.113281 9.09375 -19.03125 C 8.613281 -18.945312 8.171875 -18.804688 7.765625 -18.609375 C 7.359375 -18.410156 7.019531 -18.140625 6.75 -17.796875 C 6.488281 -17.460938 6.359375 -17.03125 6.359375 -16.5 C 6.359375 -16 6.507812 -15.578125 6.8125 -15.234375 C 7.125 -14.898438 7.546875 -14.597656 8.078125 -14.328125 C 8.609375 -14.066406 9.21875 -13.828125 9.90625 -13.609375 C 10.59375 -13.398438 11.300781 -13.195312 12.03125 -13 C 12.988281 -12.726562 13.929688 -12.4375 14.859375 -12.125 C 15.785156 -11.8125 16.601562 -11.414062 17.3125 -10.9375 C 18.03125 -10.46875 18.609375 -9.894531 19.046875 -9.21875 C 19.484375 -8.539062 19.703125 -7.710938 19.703125 -6.734375 C 19.703125 -5.523438 19.425781 -4.472656 18.875 -3.578125 C 18.332031 -2.679688 17.625 -1.9375 16.75 -1.34375 C 15.882812 -0.757812 14.910156 -0.316406 13.828125 -0.015625 C 12.742188 0.273438 11.671875 0.421875 10.609375 0.421875 C 9.398438 0.421875 8.253906 0.316406 7.171875 0.109375 C 6.097656 -0.0976562 5.195312 -0.289062 4.46875 -0.46875 C 3.539062 -0.71875 2.945312 -0.84375 2.6875 -0.84375 C 2.4375 -0.84375 2.234375 -0.785156 2.078125 -0.671875 C 1.929688 -0.554688 1.785156 -0.414062 1.640625 -0.25 L 1.3125 -8.5 L 1.640625 -8.59375 C 1.785156 -7.5 2.101562 -6.519531 2.59375 -5.65625 C 3.082031 -4.800781 3.695312 -4.070312 4.4375 -3.46875 C 5.1875 -2.863281 6.03125 -2.398438 6.96875 -2.078125 C 7.90625 -1.753906 8.894531 -1.59375 9.9375 -1.59375 C 10.519531 -1.59375 11.132812 -1.675781 11.78125 -1.84375 C 12.425781 -2.019531 13.015625 -2.269531 13.546875 -2.59375 C 14.085938 -2.914062 14.53125 -3.320312 14.875 -3.8125 C 15.226562 -4.300781 15.40625 -4.867188 15.40625 -5.515625 C 15.40625 -6.046875 15.25 -6.5 14.9375 -6.875 C 14.632812 -7.257812 14.210938 -7.59375 13.671875 -7.875 C 13.140625 -8.15625 12.53125 -8.398438 11.84375 -8.609375 C 11.15625 -8.816406 10.421875 -9.035156 9.640625 -9.265625 C 8.710938 -9.515625 7.800781 -9.800781 6.90625 -10.125 C 6.007812 -10.445312 5.203125 -10.835938 4.484375 -11.296875 C 3.765625 -11.765625 3.179688 -12.347656 2.734375 -13.046875 C 2.285156 -13.742188 2.0625 -14.597656 2.0625 -15.609375 Z M 2.0625 -15.609375 "/></g></g></g></svg>