<svg xmlns="http://www.w3.org/2000/svg" xmlns:xlink="http://www.w3.org/1999/xlink" width="250" zoomAndPan="magnify" viewBox="0 0 187.5 52.499999" height="70" preserveAspectRatio="xMidYMid meet" version="1.0"><defs><g/><clipPath id="29b2bfb8d6"><path d="M 0.636719 0 L 186.367188 0 L 186.367188 52.003906 L 0.636719 52.003906 Z M 0.636719 0 " clip-rule="nonzero"/></clipPath></defs><g clip-path="url(#29b2bfb8d6)"><path stroke-linecap="butt" transform="matrix(0.742924, 0, 0, 0.742924, -25.665238, 8.544118)" fill="none" stroke-linejoin="miter" d="M 60.062995 1.964922 L 54.904959 15.567205 C 57.591765 15.640816 59.894741 16.11403 61.824404 16.986848 C 63.748809 17.854407 65.257837 18.795578 66.34623 19.81036 Z M 67.713294 -2.278233 L 67.713294 -1.768213 C 66.619643 -1.473769 66.067559 -0.795495 66.067559 0.266608 C 66.067559 0.377025 66.099107 0.5926 66.151686 0.913335 C 66.209524 1.239327 66.330456 1.702025 66.525 2.311946 L 76.262699 30.352523 C 76.64127 31.451432 77.040874 32.350539 77.450993 33.049845 C 77.86637 33.738634 78.623513 34.222365 79.722421 34.490519 L 79.722421 35.000539 L 66.85625 35.000539 L 66.85625 34.490519 C 67.687004 34.301234 68.354762 33.896373 68.864782 33.270678 C 69.38006 32.644984 69.637698 31.724845 69.637698 30.515519 C 69.637698 29.432384 69.332738 28.175737 68.722817 26.756094 C 68.123413 25.336451 67.192758 23.995677 65.930853 22.728515 C 64.668948 21.46661 63.060019 20.383475 61.114583 19.47911 C 59.169146 18.564229 56.855654 18.091014 54.174106 18.054209 L 50.772221 27.408078 C 50.320038 28.685757 50.057142 29.632186 49.98353 30.242106 C 49.909919 30.841511 49.867856 31.235856 49.867856 31.4304 C 49.867856 32.371571 50.18859 33.102424 50.8248 33.617702 C 51.471527 34.122464 52.191864 34.416908 52.980554 34.490519 L 52.980554 35.000539 L 41.418351 35.000539 L 41.418351 34.490519 C 41.870534 34.380103 42.301685 34.248654 42.717062 34.101432 C 43.132439 33.943694 43.547816 33.62296 43.963193 33.133972 C 44.389086 32.644984 44.846526 31.945678 45.335514 31.041313 C 45.824502 30.13169 46.371328 28.864527 46.981249 27.239824 L 56.040674 3.32147 C 56.272023 2.685259 56.466567 2.112144 56.634821 1.607382 C 56.803075 1.092104 56.881944 0.571569 56.881944 0.045775 C 56.881944 -0.490535 56.692658 -0.905912 56.314086 -1.200356 C 55.946031 -1.505316 55.551686 -1.694602 55.125793 -1.768213 L 55.125793 -2.278233 Z M 93.266867 9.215617 C 92.662204 9.215617 92.120637 9.236649 91.647422 9.28397 C 91.179466 9.320776 90.637898 9.378613 90.033236 9.452224 L 90.033236 28.317701 C 90.033236 29.074844 90.096331 29.695281 90.222521 30.184269 C 90.364486 30.673257 90.611609 31.078118 90.974406 31.40411 C 91.331946 31.724845 91.83145 31.950936 92.46766 32.082384 C 93.109129 32.208575 93.966172 32.276928 95.023018 32.276928 C 98.45645 32.276928 101.095935 31.283178 102.951986 29.300936 C 104.80278 27.318693 105.733435 24.705499 105.733435 21.456094 C 105.733435 19.726233 105.417959 18.112046 104.792264 16.613534 C 104.171828 15.12028 103.314784 13.826827 102.215875 12.727919 C 101.122224 11.62901 99.80774 10.771966 98.277681 10.156788 C 96.742363 9.531093 95.075597 9.215617 93.266867 9.215617 Z M 90.033236 -3.760971 L 90.033236 6.723355 C 91.726291 6.612938 92.919843 6.549843 93.598117 6.534069 C 94.281649 6.513037 94.796926 6.502521 95.133434 6.502521 C 97.662502 6.502521 99.954962 6.891609 102.010816 7.664525 C 104.077185 8.4427 105.833336 9.520577 107.279269 10.903415 C 108.735717 12.275736 109.860916 13.900439 110.654864 15.772264 C 111.448812 17.633574 111.848416 19.663137 111.848416 21.860955 C 111.848416 26.204011 110.476094 29.479706 107.736709 31.693297 C 104.997324 33.896373 101.043355 35.000539 95.869546 35.000539 L 80.858136 35.000539 L 80.858136 34.490519 C 82.288295 34.301234 83.213691 33.670281 83.629068 32.592404 C 84.039188 31.514527 84.249505 30.179011 84.249505 28.596372 L 84.249505 4.178513 C 84.249505 2.059565 84.023414 0.534763 83.571231 -0.385376 C 83.119049 -1.305515 82.214683 -1.768213 80.858136 -1.768213 L 80.858136 -2.278233 Z M 130.650798 9.215617 C 129.110222 9.215617 127.774706 9.510061 126.638992 10.09895 C 125.503278 10.682581 124.577881 11.47653 123.857543 12.480796 C 123.137206 13.474546 122.606154 14.63655 122.269647 15.966808 C 121.927881 17.28655 121.754369 18.664129 121.754369 20.099546 C 121.754369 21.529705 121.927881 23.001927 122.269647 24.516213 C 122.606154 26.025241 123.147722 27.397563 123.883833 28.622662 C 124.625202 29.847761 125.576889 30.857285 126.749409 31.651233 C 127.921929 32.445182 129.336314 32.839527 130.997822 32.839527 C 132.396433 32.839527 133.642564 32.524051 134.730957 31.887841 C 135.829866 31.241114 136.755263 30.394587 137.512405 29.342999 C 138.269548 28.280896 138.842664 27.07157 139.242267 25.720281 C 139.636612 24.353217 139.836414 22.933574 139.836414 21.456094 C 139.836414 20.173157 139.694449 18.81661 139.405263 17.375935 C 139.13185 15.940518 138.632346 14.615518 137.912009 13.406193 C 137.191671 12.196867 136.245243 11.197859 135.077981 10.403911 C 133.905461 9.609962 132.427981 9.215617 130.650798 9.215617 Z M 115.297622 21.235261 C 115.297622 18.96909 115.702483 16.918494 116.512206 15.09399 C 117.332444 13.25897 118.447126 11.707879 119.861511 10.445974 C 121.281154 9.173553 122.942662 8.200835 124.840778 7.527819 C 126.749409 6.844287 128.821036 6.502521 131.050401 6.502521 C 133.211413 6.502521 135.209429 6.817998 137.054965 7.443692 C 138.905759 8.064129 140.514687 8.968494 141.865977 10.156788 C 143.233041 11.345081 144.310918 12.827819 145.104866 14.61026 C 145.898815 16.382185 146.29316 18.401233 146.29316 20.667403 C 146.29316 23.012443 145.877783 25.11036 145.052287 26.961154 C 144.221533 28.80669 143.096334 30.368297 141.676691 31.640718 C 140.262306 32.902622 138.59554 33.875341 136.665878 34.558873 C 134.741473 35.231888 132.680362 35.568396 130.482544 35.568396 C 128.337306 35.568396 126.334032 35.237146 124.47798 34.585162 C 122.627186 33.922662 121.018258 32.976234 119.651194 31.751134 C 118.294646 30.515519 117.232543 29.011749 116.459626 27.239824 C 115.681452 25.457384 115.297622 23.459368 115.297622 21.235261 Z M 158.365383 7.070379 L 158.365383 24.516213 C 158.365383 27.160955 158.670343 29.006491 159.29078 30.047563 C 159.916474 31.078118 160.989094 31.598654 162.498121 31.598654 C 162.718955 31.598654 163.065979 31.567106 163.539193 31.514527 C 164.017665 31.45669 164.553975 31.319983 165.15338 31.09915 C 165.7633 30.867801 166.394253 30.536551 167.051495 30.1054 C 167.713995 29.668991 168.371237 29.074844 169.012705 28.317701 C 169.464888 27.781392 169.853975 27.234567 170.174709 26.671967 C 170.500701 26.098852 170.753082 25.478416 170.93711 24.8054 C 171.131654 24.121868 171.273618 23.359467 171.368261 22.507681 C 171.457646 21.661153 171.504967 20.688435 171.504967 19.589526 L 171.504967 14.15282 C 171.504967 13.358871 171.468162 12.612244 171.394551 11.912938 C 171.32094 11.213633 171.157944 10.60897 170.91082 10.09895 C 170.65844 9.594188 170.311416 9.178811 169.859233 8.858077 C 169.407051 8.532085 168.82342 8.353315 168.103082 8.31651 L 168.103082 7.80649 L 177.288698 7.070379 L 177.288698 28.648952 C 177.288698 30.578614 177.541079 32.024547 178.045841 32.992007 C 178.555861 33.95421 179.470742 34.453714 180.801 34.490519 L 180.801 35.000539 L 172.640682 35.000539 C 171.993955 33.339031 171.615384 31.414626 171.504967 29.216809 C 170.637408 30.010757 169.727785 30.79419 168.781356 31.567106 C 167.840185 32.345281 166.856951 33.028813 165.831653 33.617702 C 164.816872 34.196075 163.770542 34.669289 162.692665 35.026829 C 161.614788 35.389627 160.510621 35.568396 159.385423 35.568396 C 157.082447 35.568396 155.368359 34.879607 154.253676 33.507285 C 153.138994 32.124448 152.581653 30.089626 152.581653 27.408078 L 152.581653 14.15282 C 152.581653 13.358871 152.544847 12.62276 152.471236 11.939228 C 152.397625 11.255696 152.234629 10.661549 151.987506 10.156788 C 151.735125 9.646768 151.388101 9.231391 150.935918 8.910657 C 150.483736 8.589922 149.900105 8.390121 149.179767 8.31651 L 149.179767 7.80649 Z M 190.822627 -2.735674 L 190.822627 7.580398 L 195.63364 7.580398 C 196.133144 7.580398 196.701001 7.538335 197.337211 7.443692 C 197.983937 7.343791 198.530763 7.065121 198.982945 6.612938 L 197.389791 10.640518 C 197.316179 10.566907 197.13741 10.445974 196.853481 10.282978 C 196.57481 10.104208 196.059533 10.020081 195.30239 10.020081 L 190.822627 10.020081 L 190.822627 26.840221 C 190.822627 28.875043 191.132846 30.294686 191.748024 31.083376 C 192.373719 31.877325 193.409532 32.276928 194.844949 32.276928 C 195.980663 32.276928 196.979671 32.050837 197.847231 31.598654 C 198.714791 31.146472 199.508739 30.505003 200.229076 29.674249 L 200.5761 29.842503 L 198.635922 34.490519 C 197.547529 34.827027 196.411814 35.089924 195.218263 35.27921 C 194.029969 35.468496 192.831159 35.568396 191.621834 35.568396 C 190.6386 35.568396 189.739492 35.442206 188.924512 35.195083 C 188.11479 34.953218 187.420742 34.532583 186.852885 33.933178 C 186.290286 33.328515 185.848619 32.508277 185.522627 31.488237 C 185.201893 30.46294 185.038897 29.180003 185.038897 27.639428 L 185.038897 10.020081 L 181.305762 10.020081 L 181.305762 9.504803 C 182.925206 9.052621 184.124016 8.148256 184.90219 6.796966 C 185.675107 5.429902 186.064195 3.973454 186.064195 2.422362 C 186.064195 2.006985 186.037905 1.575835 185.980068 1.123652 C 185.92223 0.660954 185.843361 0.129902 185.732945 -0.469503 Z M 232.696837 -2.278233 L 232.696837 -1.768213 C 231.676797 -1.694602 230.856559 -1.542122 230.251896 -1.310773 C 229.652491 -1.089939 229.179277 -0.685078 228.837511 -0.0961893 C 228.495745 0.487442 228.264396 1.297164 228.132947 2.338235 C 228.006757 3.374049 227.89634 4.741113 227.817471 6.449942 L 227.08136 20.77782 C 227.044554 21.119586 227.028781 21.534963 227.028781 22.023951 C 227.028781 22.512939 227.028781 22.928316 227.028781 23.270082 C 227.028781 25.08407 227.254872 26.551035 227.707055 27.670975 C 228.159237 28.775142 228.837511 29.705797 229.752392 30.46294 C 230.583146 31.109666 231.603186 31.619686 232.807253 31.998257 C 234.016579 32.376829 235.225904 32.566114 236.43523 32.566114 C 237.455269 32.566114 238.522631 32.434666 239.626797 32.177027 C 240.746738 31.908872 241.871936 31.45669 243.002393 30.809964 C 244.138107 30.163237 245.063504 29.243098 245.783841 28.054805 C 246.504179 26.866511 246.861719 25.215519 246.861719 23.101828 C 246.861719 22.686451 246.861719 22.302622 246.861719 21.939824 C 246.861719 21.582284 246.845945 21.098554 246.809139 20.488634 L 246.172929 6.045081 C 246.099318 4.425636 245.988901 3.11641 245.841679 2.117402 C 245.694457 1.113136 245.43156 0.329704 245.052988 -0.232896 C 244.674417 -0.806011 244.169655 -1.18984 243.54396 -1.3949 C 242.918266 -1.605217 242.098028 -1.731408 241.083246 -1.768213 L 241.083246 -2.278233 L 253.144953 -2.278233 L 253.144953 -1.768213 L 252.866282 -1.710376 C 252.293167 -1.563154 251.809437 -1.405416 251.415092 -1.226646 C 251.020747 -1.06365 250.694754 -0.790237 250.447631 -0.411666 C 250.205766 -0.0330941 250.04277 0.487442 249.948127 1.149942 C 249.858743 1.807184 249.811421 2.701033 249.811421 3.836747 C 249.811421 4.320478 249.811421 4.809466 249.811421 5.287938 C 249.811421 5.755894 249.827195 6.234367 249.864 6.723355 L 250.489695 22.591808 C 250.489695 24.742304 250.211024 26.545777 249.658941 28.002225 C 249.112115 29.458674 248.291877 30.694289 247.198226 31.709071 C 246.330667 32.503019 245.410528 33.155003 244.443068 33.670281 C 243.486123 34.180301 242.513405 34.595678 241.524913 34.916412 C 240.546936 35.237146 239.563702 35.45798 238.580468 35.568396 C 237.602492 35.678813 236.677095 35.731392 235.809535 35.731392 C 235.015587 35.731392 234.126995 35.689329 233.143761 35.594686 C 232.165785 35.500043 231.172035 35.342305 230.167769 35.110956 C 229.174019 34.890123 228.217074 34.606194 227.302193 34.264428 C 226.397828 33.92792 225.630169 33.512543 224.993959 33.023555 C 223.663701 32.035063 222.648919 30.899348 221.949614 29.616412 C 221.260824 28.338733 220.9138 26.735062 220.9138 24.8054 C 220.9138 24.048257 220.924316 23.101828 220.94009 21.971372 C 220.961122 20.835657 221.003185 19.736749 221.076796 18.674645 L 221.702491 6.392105 C 221.739296 5.97147 221.75507 5.540319 221.75507 5.109168 C 221.75507 4.672759 221.75507 4.246867 221.75507 3.836747 C 221.75507 2.701033 221.702491 1.796668 221.592074 1.123652 C 221.481657 0.44012 221.292372 -0.101447 221.024217 -0.495793 C 220.756062 -0.890138 220.398522 -1.174066 219.94634 -1.337062 C 219.494157 -1.515832 218.905268 -1.657797 218.190189 -1.768213 L 218.190189 -2.278233 Z M 256.546838 13.97405 C 256.546838 12.617502 256.878088 11.460756 257.530072 10.503811 C 258.19783 9.531093 259.044358 8.758176 260.074914 8.179803 C 261.121243 7.585656 262.262216 7.165021 263.508347 6.907383 C 264.759736 6.639228 265.974319 6.502521 267.146839 6.502521 C 268.277295 6.502521 269.328883 6.570875 270.285827 6.697065 C 271.242772 6.828514 272.110331 6.980994 272.888506 7.154506 C 273.661423 7.32276 274.329181 7.469982 274.89178 7.611946 C 275.464895 7.738137 275.922336 7.80649 276.258844 7.80649 C 276.747832 7.80649 277.200014 7.65401 277.615391 7.349049 L 278.020252 16.129804 L 277.615391 16.187641 C 277.431363 15.088732 277.010729 14.105498 276.342971 13.243196 C 275.690986 12.375637 274.907554 11.650042 273.992673 11.066411 C 273.088308 10.477522 272.099815 10.020081 271.01668 9.699347 C 269.938803 9.378613 268.8767 9.215617 267.825113 9.215617 C 267.251998 9.215617 266.642077 9.273454 265.995351 9.394387 C 265.35914 9.504803 264.764994 9.694089 264.21291 9.962244 C 263.671343 10.219883 263.21916 10.58268 262.856362 11.040121 C 262.498823 11.492304 262.320053 12.075935 262.320053 12.785756 C 262.320053 13.46403 262.525112 14.031887 262.940489 14.48407 C 263.366382 14.936252 263.928982 15.341113 264.644061 15.703911 C 265.35914 16.061451 266.179379 16.387443 267.104775 16.671371 C 268.03543 16.9553 268.992375 17.228713 269.965093 17.486352 C 271.258546 17.864923 272.525708 18.264526 273.771839 18.674645 C 275.01797 19.090022 276.116879 19.621074 277.079082 20.2678 C 278.046542 20.914526 278.819459 21.687443 279.40309 22.591808 C 279.991979 23.496173 280.286423 24.610856 280.286423 25.941114 C 280.286423 27.560559 279.918368 28.980202 279.182256 30.184269 C 278.440887 31.393595 277.489201 32.392603 276.316681 33.186551 C 275.144161 33.9805 273.829677 34.574646 272.373228 34.97425 C 270.927296 35.368595 269.481363 35.568396 268.045946 35.568396 C 266.421244 35.568396 264.880668 35.426432 263.42422 35.137246 C 261.978287 34.863833 260.758446 34.606194 259.769954 34.380103 C 258.52908 34.038337 257.735132 33.864825 257.393366 33.864825 C 257.0516 33.864825 256.77293 33.943694 256.562612 34.101432 C 256.36281 34.248654 256.168267 34.432682 255.984239 34.653515 L 255.526798 23.559269 L 255.984239 23.433078 C 256.168267 24.910558 256.588902 26.225043 257.25666 27.376531 C 257.91916 28.533277 258.749914 29.511253 259.743664 30.326233 C 260.74793 31.135956 261.883644 31.756392 263.145549 32.192801 C 264.412712 32.623952 265.74297 32.839527 267.146839 32.839527 C 267.940787 32.839527 268.766284 32.729111 269.633843 32.508277 C 270.501403 32.276928 271.295351 31.945678 272.015688 31.514527 C 272.736026 31.078118 273.330173 30.536551 273.798129 29.879309 C 274.271343 29.216809 274.502693 28.44915 274.502693 27.571074 C 274.502693 26.861253 274.297633 26.251332 273.882256 25.74657 C 273.466879 25.231293 272.899022 24.784368 272.178685 24.405796 C 271.463605 24.027225 270.638109 23.695975 269.71797 23.422562 C 268.797831 23.133376 267.804081 22.838931 266.741978 22.533971 C 265.501105 22.197463 264.270747 21.808376 263.06668 21.371967 C 261.857354 20.940816 260.768962 20.415022 259.801501 19.799844 C 258.839299 19.168891 258.055866 18.385459 257.445945 17.444288 C 256.846541 16.497859 256.546838 15.341113 256.546838 13.97405 Z M 256.546838 13.97405 " stroke="#eeebe9" stroke-width="4.249672" stroke-opacity="1" stroke-miterlimit="4"/></g><g fill="#320003" fill-opacity="1"><g transform="translate(5.444724, 34.546474)"><g><path d="M 13.515625 -24.546875 L 9.6875 -14.4375 C 11.675781 -14.382812 13.382812 -14.035156 14.8125 -13.390625 C 16.25 -12.742188 17.375 -12.039062 18.1875 -11.28125 Z M 19.1875 -27.703125 L 19.1875 -27.3125 C 18.375 -27.09375 17.96875 -26.585938 17.96875 -25.796875 C 17.96875 -25.710938 17.988281 -25.550781 18.03125 -25.3125 C 18.070312 -25.082031 18.164062 -24.738281 18.3125 -24.28125 L 25.546875 -3.453125 C 25.828125 -2.640625 26.117188 -1.972656 26.421875 -1.453125 C 26.734375 -0.929688 27.300781 -0.570312 28.125 -0.375 L 28.125 0 L 18.5625 0 L 18.5625 -0.375 C 19.175781 -0.519531 19.671875 -0.820312 20.046875 -1.28125 C 20.429688 -1.75 20.625 -2.429688 20.625 -3.328125 C 20.625 -4.140625 20.398438 -5.070312 19.953125 -6.125 C 19.503906 -7.175781 18.804688 -8.171875 17.859375 -9.109375 C 16.921875 -10.054688 15.726562 -10.863281 14.28125 -11.53125 C 12.84375 -12.207031 11.128906 -12.5625 9.140625 -12.59375 L 6.609375 -5.640625 C 6.273438 -4.679688 6.078125 -3.976562 6.015625 -3.53125 C 5.960938 -3.082031 5.9375 -2.789062 5.9375 -2.65625 C 5.9375 -1.945312 6.171875 -1.40625 6.640625 -1.03125 C 7.117188 -0.65625 7.65625 -0.4375 8.25 -0.375 L 8.25 0 L -0.34375 0 L -0.34375 -0.375 C 0 -0.457031 0.320312 -0.554688 0.625 -0.671875 C 0.9375 -0.785156 1.242188 -1.023438 1.546875 -1.390625 C 1.859375 -1.753906 2.195312 -2.269531 2.5625 -2.9375 C 2.925781 -3.613281 3.332031 -4.554688 3.78125 -5.765625 L 10.53125 -23.53125 C 10.695312 -24.007812 10.84375 -24.4375 10.96875 -24.8125 C 11.09375 -25.1875 11.15625 -25.570312 11.15625 -25.96875 C 11.15625 -26.363281 11.015625 -26.671875 10.734375 -26.890625 C 10.453125 -27.117188 10.15625 -27.257812 9.84375 -27.3125 L 9.84375 -27.703125 Z M 19.1875 -27.703125 "/></g></g></g><g fill="#320003" fill-opacity="1"><g transform="translate(32.383133, 34.546474)"><g><path d="M 11.234375 -19.15625 C 10.785156 -19.15625 10.382812 -19.140625 10.03125 -19.109375 C 9.6875 -19.078125 9.289062 -19.035156 8.84375 -18.984375 L 8.84375 -4.96875 C 8.84375 -4.40625 8.890625 -3.941406 8.984375 -3.578125 C 9.085938 -3.210938 9.269531 -2.910156 9.53125 -2.671875 C 9.800781 -2.429688 10.171875 -2.257812 10.640625 -2.15625 C 11.117188 -2.0625 11.753906 -2.015625 12.546875 -2.015625 C 15.097656 -2.015625 17.0625 -2.75 18.4375 -4.21875 C 19.8125 -5.695312 20.5 -7.644531 20.5 -10.0625 C 20.5 -11.351562 20.265625 -12.550781 19.796875 -13.65625 C 19.335938 -14.769531 18.703125 -15.734375 17.890625 -16.546875 C 17.078125 -17.359375 16.101562 -17.992188 14.96875 -18.453125 C 13.832031 -18.921875 12.585938 -19.15625 11.234375 -19.15625 Z M 8.84375 -28.796875 L 8.84375 -21 C 10.101562 -21.082031 10.984375 -21.128906 11.484375 -21.140625 C 11.992188 -21.160156 12.375 -21.171875 12.625 -21.171875 C 14.507812 -21.171875 16.210938 -20.882812 17.734375 -20.3125 C 19.265625 -19.738281 20.570312 -18.9375 21.65625 -17.90625 C 22.738281 -16.882812 23.570312 -15.675781 24.15625 -14.28125 C 24.75 -12.894531 25.046875 -11.390625 25.046875 -9.765625 C 25.046875 -6.535156 24.023438 -4.097656 21.984375 -2.453125 C 19.953125 -0.816406 17.015625 0 13.171875 0 L 2.015625 0 L 2.015625 -0.375 C 3.085938 -0.519531 3.773438 -0.988281 4.078125 -1.78125 C 4.390625 -2.582031 4.546875 -3.570312 4.546875 -4.75 L 4.546875 -22.90625 C 4.546875 -24.46875 4.375 -25.59375 4.03125 -26.28125 C 3.695312 -26.96875 3.023438 -27.3125 2.015625 -27.3125 L 2.015625 -27.703125 Z M 8.84375 -28.796875 "/></g></g></g><g fill="#320003" fill-opacity="1"><g transform="translate(58.47971, 34.546474)"><g><path d="M 12.921875 -19.15625 C 11.773438 -19.15625 10.78125 -18.9375 9.9375 -18.5 C 9.09375 -18.0625 8.40625 -17.46875 7.875 -16.71875 C 7.34375 -15.976562 6.945312 -15.117188 6.6875 -14.140625 C 6.4375 -13.160156 6.3125 -12.140625 6.3125 -11.078125 C 6.3125 -10.003906 6.4375 -8.90625 6.6875 -7.78125 C 6.945312 -6.664062 7.347656 -5.648438 7.890625 -4.734375 C 8.441406 -3.828125 9.148438 -3.078125 10.015625 -2.484375 C 10.890625 -1.890625 11.941406 -1.59375 13.171875 -1.59375 C 14.210938 -1.59375 15.140625 -1.832031 15.953125 -2.3125 C 16.765625 -2.789062 17.453125 -3.421875 18.015625 -4.203125 C 18.578125 -4.992188 19.003906 -5.894531 19.296875 -6.90625 C 19.585938 -7.914062 19.734375 -8.96875 19.734375 -10.0625 C 19.734375 -11.007812 19.628906 -12.015625 19.421875 -13.078125 C 19.210938 -14.148438 18.84375 -15.132812 18.3125 -16.03125 C 17.78125 -16.9375 17.078125 -17.679688 16.203125 -18.265625 C 15.335938 -18.859375 14.242188 -19.15625 12.921875 -19.15625 Z M 1.515625 -10.234375 C 1.515625 -11.910156 1.816406 -13.429688 2.421875 -14.796875 C 3.023438 -16.160156 3.851562 -17.3125 4.90625 -18.25 C 5.957031 -19.1875 7.191406 -19.90625 8.609375 -20.40625 C 10.023438 -20.914062 11.5625 -21.171875 13.21875 -21.171875 C 14.8125 -21.171875 16.296875 -20.9375 17.671875 -20.46875 C 19.046875 -20.007812 20.238281 -19.335938 21.25 -18.453125 C 22.257812 -17.566406 23.0625 -16.460938 23.65625 -15.140625 C 24.25 -13.828125 24.546875 -12.332031 24.546875 -10.65625 C 24.546875 -8.914062 24.234375 -7.359375 23.609375 -5.984375 C 22.992188 -4.609375 22.160156 -3.445312 21.109375 -2.5 C 20.054688 -1.5625 18.8125 -0.835938 17.375 -0.328125 C 15.945312 0.171875 14.421875 0.421875 12.796875 0.421875 C 11.191406 0.421875 9.703125 0.175781 8.328125 -0.3125 C 6.953125 -0.800781 5.757812 -1.5 4.75 -2.40625 C 3.738281 -3.320312 2.945312 -4.441406 2.375 -5.765625 C 1.800781 -7.085938 1.515625 -8.578125 1.515625 -10.234375 Z M 1.515625 -10.234375 "/></g></g></g><g fill="#320003" fill-opacity="1"><g transform="translate(83.734454, 34.546474)"><g><path d="M 8.25 -20.75 L 8.25 -7.78125 C 8.25 -5.820312 8.476562 -4.457031 8.9375 -3.6875 C 9.40625 -2.914062 10.203125 -2.53125 11.328125 -2.53125 C 11.492188 -2.53125 11.75 -2.550781 12.09375 -2.59375 C 12.445312 -2.632812 12.847656 -2.738281 13.296875 -2.90625 C 13.742188 -3.070312 14.210938 -3.316406 14.703125 -3.640625 C 15.203125 -3.960938 15.6875 -4.40625 16.15625 -4.96875 C 16.5 -5.363281 16.789062 -5.769531 17.03125 -6.1875 C 17.269531 -6.601562 17.457031 -7.0625 17.59375 -7.5625 C 17.738281 -8.070312 17.84375 -8.644531 17.90625 -9.28125 C 17.976562 -9.914062 18.015625 -10.640625 18.015625 -11.453125 L 18.015625 -15.484375 C 18.015625 -16.078125 17.984375 -16.632812 17.921875 -17.15625 C 17.867188 -17.675781 17.75 -18.125 17.5625 -18.5 C 17.382812 -18.875 17.128906 -19.179688 16.796875 -19.421875 C 16.460938 -19.660156 16.023438 -19.796875 15.484375 -19.828125 L 15.484375 -20.203125 L 22.3125 -20.75 L 22.3125 -4.71875 C 22.3125 -3.28125 22.5 -2.203125 22.875 -1.484375 C 23.257812 -0.773438 23.941406 -0.40625 24.921875 -0.375 L 24.921875 0 L 18.859375 0 C 18.378906 -1.238281 18.097656 -2.671875 18.015625 -4.296875 C 17.367188 -3.703125 16.691406 -3.117188 15.984375 -2.546875 C 15.285156 -1.972656 14.554688 -1.46875 13.796875 -1.03125 C 13.046875 -0.59375 12.269531 -0.242188 11.46875 0.015625 C 10.664062 0.285156 9.847656 0.421875 9.015625 0.421875 C 7.296875 0.421875 6.019531 -0.0859375 5.1875 -1.109375 C 4.363281 -2.140625 3.953125 -3.648438 3.953125 -5.640625 L 3.953125 -15.484375 C 3.953125 -16.078125 3.921875 -16.625 3.859375 -17.125 C 3.804688 -17.632812 3.6875 -18.078125 3.5 -18.453125 C 3.320312 -18.835938 3.066406 -19.144531 2.734375 -19.375 C 2.398438 -19.613281 1.96875 -19.765625 1.4375 -19.828125 L 1.4375 -20.203125 Z M 8.25 -20.75 "/></g></g></g><g fill="#320003" fill-opacity="1"><g transform="translate(108.989198, 34.546474)"><g><path d="M 7.109375 -28.03125 L 7.109375 -20.375 L 10.6875 -20.375 C 11.050781 -20.375 11.472656 -20.40625 11.953125 -20.46875 C 12.429688 -20.539062 12.835938 -20.75 13.171875 -21.09375 L 12 -18.09375 C 11.9375 -18.15625 11.800781 -18.25 11.59375 -18.375 C 11.382812 -18.5 11 -18.5625 10.4375 -18.5625 L 7.109375 -18.5625 L 7.109375 -6.0625 C 7.109375 -4.539062 7.335938 -3.484375 7.796875 -2.890625 C 8.265625 -2.304688 9.035156 -2.015625 10.109375 -2.015625 C 10.941406 -2.015625 11.679688 -2.179688 12.328125 -2.515625 C 12.972656 -2.859375 13.5625 -3.335938 14.09375 -3.953125 L 14.359375 -3.828125 L 12.921875 -0.375 C 12.109375 -0.125 11.257812 0.0664062 10.375 0.203125 C 9.488281 0.347656 8.597656 0.421875 7.703125 0.421875 C 6.972656 0.421875 6.304688 0.328125 5.703125 0.140625 C 5.097656 -0.0351562 4.582031 -0.347656 4.15625 -0.796875 C 3.738281 -1.242188 3.410156 -1.847656 3.171875 -2.609375 C 2.929688 -3.367188 2.8125 -4.320312 2.8125 -5.46875 L 2.8125 -18.5625 L 0.046875 -18.5625 L 0.046875 -18.9375 C 1.253906 -19.28125 2.144531 -19.957031 2.71875 -20.96875 C 3.289062 -21.976562 3.578125 -23.054688 3.578125 -24.203125 C 3.578125 -24.515625 3.554688 -24.835938 3.515625 -25.171875 C 3.472656 -25.503906 3.410156 -25.894531 3.328125 -26.34375 Z M 7.109375 -28.03125 "/></g></g></g><g fill="#320003" fill-opacity="1"><g transform="translate(122.458367, 34.546474)"><g/></g></g><g fill="#320003" fill-opacity="1"><g transform="translate(135.085702, 34.546474)"><g><path d="M 12.125 -27.703125 L 12.125 -27.3125 C 11.363281 -27.257812 10.757812 -27.148438 10.3125 -26.984375 C 9.863281 -26.816406 9.507812 -26.515625 9.25 -26.078125 C 9 -25.640625 8.828125 -25.035156 8.734375 -24.265625 C 8.640625 -23.492188 8.5625 -22.476562 8.5 -21.21875 L 7.953125 -10.5625 C 7.921875 -10.3125 7.90625 -10.003906 7.90625 -9.640625 C 7.90625 -9.273438 7.90625 -8.96875 7.90625 -8.71875 C 7.90625 -7.363281 8.070312 -6.269531 8.40625 -5.4375 C 8.75 -4.613281 9.257812 -3.925781 9.9375 -3.375 C 10.550781 -2.894531 11.304688 -2.515625 12.203125 -2.234375 C 13.097656 -1.953125 14 -1.8125 14.90625 -1.8125 C 15.65625 -1.8125 16.441406 -1.910156 17.265625 -2.109375 C 18.097656 -2.304688 18.9375 -2.640625 19.78125 -3.109375 C 20.625 -3.585938 21.3125 -4.269531 21.84375 -5.15625 C 22.375 -6.039062 22.640625 -7.269531 22.640625 -8.84375 C 22.640625 -9.144531 22.640625 -9.429688 22.640625 -9.703125 C 22.640625 -9.972656 22.628906 -10.332031 22.609375 -10.78125 L 22.140625 -21.515625 C 22.085938 -22.710938 22.003906 -23.679688 21.890625 -24.421875 C 21.773438 -25.171875 21.578125 -25.753906 21.296875 -26.171875 C 21.015625 -26.597656 20.640625 -26.890625 20.171875 -27.046875 C 19.710938 -27.203125 19.109375 -27.289062 18.359375 -27.3125 L 18.359375 -27.703125 L 27.3125 -27.703125 L 27.3125 -27.3125 L 27.109375 -27.28125 C 26.691406 -27.164062 26.332031 -27.046875 26.03125 -26.921875 C 25.738281 -26.796875 25.5 -26.59375 25.3125 -26.3125 C 25.132812 -26.03125 25.007812 -25.644531 24.9375 -25.15625 C 24.863281 -24.664062 24.828125 -24 24.828125 -23.15625 C 24.828125 -22.789062 24.828125 -22.429688 24.828125 -22.078125 C 24.828125 -21.722656 24.84375 -21.363281 24.875 -21 L 25.34375 -9.21875 C 25.34375 -7.613281 25.140625 -6.269531 24.734375 -5.1875 C 24.328125 -4.113281 23.71875 -3.195312 22.90625 -2.4375 C 22.257812 -1.851562 21.578125 -1.367188 20.859375 -0.984375 C 20.140625 -0.609375 19.414062 -0.300781 18.6875 -0.0625 C 17.957031 0.175781 17.226562 0.335938 16.5 0.421875 C 15.769531 0.503906 15.082031 0.546875 14.4375 0.546875 C 13.84375 0.546875 13.179688 0.507812 12.453125 0.4375 C 11.722656 0.375 10.988281 0.253906 10.25 0.078125 C 9.507812 -0.0859375 8.800781 -0.296875 8.125 -0.546875 C 7.445312 -0.796875 6.867188 -1.101562 6.390625 -1.46875 C 5.410156 -2.195312 4.660156 -3.039062 4.140625 -4 C 3.628906 -4.957031 3.375 -6.148438 3.375 -7.578125 C 3.375 -8.140625 3.378906 -8.835938 3.390625 -9.671875 C 3.398438 -10.515625 3.4375 -11.332031 3.5 -12.125 L 3.953125 -21.25 C 3.984375 -21.5625 4 -21.878906 4 -22.203125 C 4 -22.523438 4 -22.84375 4 -23.15625 C 4 -24 3.957031 -24.671875 3.875 -25.171875 C 3.789062 -25.679688 3.648438 -26.082031 3.453125 -26.375 C 3.253906 -26.664062 2.984375 -26.875 2.640625 -27 C 2.304688 -27.125 1.875 -27.226562 1.34375 -27.3125 L 1.34375 -27.703125 Z M 12.125 -27.703125 "/></g></g></g><g fill="#320003" fill-opacity="1"><g transform="translate(162.865926, 34.546474)"><g><path d="M 2.0625 -15.609375 C 2.0625 -16.617188 2.304688 -17.484375 2.796875 -18.203125 C 3.285156 -18.921875 3.914062 -19.492188 4.6875 -19.921875 C 5.457031 -20.359375 6.304688 -20.675781 7.234375 -20.875 C 8.160156 -21.070312 9.0625 -21.171875 9.9375 -21.171875 C 10.78125 -21.171875 11.554688 -21.117188 12.265625 -21.015625 C 12.984375 -20.921875 13.628906 -20.8125 14.203125 -20.6875 C 14.773438 -20.5625 15.269531 -20.445312 15.6875 -20.34375 C 16.113281 -20.25 16.457031 -20.203125 16.71875 -20.203125 C 17.082031 -20.203125 17.414062 -20.316406 17.71875 -20.546875 L 18.015625 -14.015625 L 17.71875 -13.96875 C 17.582031 -14.789062 17.265625 -15.519531 16.765625 -16.15625 C 16.273438 -16.800781 15.691406 -17.34375 15.015625 -17.78125 C 14.347656 -18.21875 13.613281 -18.554688 12.8125 -18.796875 C 12.019531 -19.035156 11.226562 -19.15625 10.4375 -19.15625 C 10.019531 -19.15625 9.570312 -19.113281 9.09375 -19.03125 C 8.613281 -18.945312 8.171875 -18.804688 7.765625 -18.609375 C 7.359375 -18.410156 7.019531 -18.140625 6.75 -17.796875 C 6.488281 -17.460938 6.359375 -17.03125 6.359375 -16.5 C 6.359375 -16 6.507812 -15.578125 6.8125 -15.234375 C 7.125 -14.898438 7.546875 -14.597656 8.078125 -14.328125 C 8.609375 -14.066406 9.21875 -13.828125 9.90625 -13.609375 C 10.59375 -13.398438 11.300781 -13.195312 12.03125 -13 C 12.988281 -12.726562 13.929688 -12.4375 14.859375 -12.125 C 15.785156 -11.8125 16.601562 -11.414062 17.3125 -10.9375 C 18.03125 -10.46875 18.609375 -9.894531 19.046875 -9.21875 C 19.484375 -8.539062 19.703125 -7.710938 19.703125 -6.734375 C 19.703125 -5.523438 19.425781 -4.472656 18.875 -3.578125 C 18.332031 -2.679688 17.625 -1.9375 16.75 -1.34375 C 15.882812 -0.757812 14.910156 -0.316406 13.828125 -0.015625 C 12.742188 0.273438 11.671875 0.421875 10.609375 0.421875 C 9.398438 0.421875 8.253906 0.316406 7.171875 0.109375 C 6.097656 -0.0976562 5.195312 -0.289062 4.46875 -0.46875 C 3.539062 -0.71875 2.945312 -0.84375 2.6875 -0.84375 C 2.4375 -0.84375 2.234375 -0.785156 2.078125 -0.671875 C 1.929688 -0.554688 1.785156 -0.414062 1.640625 -0.25 L 1.3125 -8.5 L 1.640625 -8.59375 C 1.785156 -7.5 2.101562 -6.519531 2.59375 -5.65625 C 3.082031 -4.800781 3.695312 -4.070312 4.4375 -3.46875 C 5.1875 -2.863281 6.03125 -2.398438 6.96875 -2.078125 C 7.90625 -1.753906 8.894531 -1.59375 9.9375 -1.59375 C 10.519531 -1.59375 11.132812 -1.675781 11.78125 -1.84375 C 12.425781 -2.019531 13.015625 -2.269531 13.546875 -2.59375 C 14.085938 -2.914062 14.53125 -3.320312 14.875 -3.8125 C 15.226562 -4.300781 15.40625 -4.867188 15.40625 -5.515625 C 15.40625 -6.046875 15.25 -6.5 14.9375 -6.875 C 14.632812 -7.257812 14.210938 -7.59375 13.671875 -7.875 C 13.140625 -8.15625 12.53125 -8.398438 11.84375 -8.609375 C 11.15625 -8.816406 10.421875 -9.035156 9.640625 -9.265625 C 8.710938 -9.515625 7.800781 -9.800781 6.90625 -10.125 C 6.007812 -10.445312 5.203125 -10.835938 4.484375 -11.296875 C 3.765625 -11.765625 3.179688 -12.347656 2.734375 -13.046875 C 2.285156 -13.742188 2.0625 -14.597656 2.0625 -15.609375 Z M 2.0625 -15.609375 "/></g></g></g></svg>