<svg xmlns="http://www.w3.org/2000/svg" xmlns:xlink="http://www.w3.org/1999/xlink" width="250" zoomAndPan="magnify" viewBox="0 0 187.5 52.499999" height="70" preserveAspectRatio="xMidYMid meet" version="1.0"><defs><g/></defs><g fill="#eeebe9" fill-opacity="1"><g transform="translate(34.565584, 34.174521)"><g><path d="M 11.625 -27.703125 L 11.625 -27.3125 C 11.03125 -27.257812 10.550781 -27.109375 10.1875 -26.859375 C 9.820312 -26.609375 9.539062 -26.289062 9.34375 -25.90625 C 9.144531 -25.53125 9.015625 -25.085938 8.953125 -24.578125 C 8.898438 -24.078125 8.875 -23.53125 8.875 -22.9375 L 8.875 -20 L 21.421875 -20 L 21.421875 -22.1875 C 21.421875 -22.914062 21.390625 -23.582031 21.328125 -24.1875 C 21.273438 -24.789062 21.15625 -25.316406 20.96875 -25.765625 C 20.789062 -26.210938 20.519531 -26.566406 20.15625 -26.828125 C 19.789062 -27.097656 19.300781 -27.257812 18.6875 -27.3125 L 18.6875 -27.703125 L 28.796875 -27.703125 L 28.796875 -27.3125 C 28.203125 -27.226562 27.722656 -27.066406 27.359375 -26.828125 C 26.992188 -26.597656 26.710938 -26.285156 26.515625 -25.890625 C 26.316406 -25.492188 26.191406 -25.050781 26.140625 -24.5625 C 26.085938 -24.070312 26.0625 -23.53125 26.0625 -22.9375 L 26.0625 -5.046875 C 26.0625 -4.429688 26.09375 -3.859375 26.15625 -3.328125 C 26.226562 -2.796875 26.351562 -2.316406 26.53125 -1.890625 C 26.71875 -1.472656 26.992188 -1.132812 27.359375 -0.875 C 27.722656 -0.625 28.203125 -0.457031 28.796875 -0.375 L 28.796875 0 L 18.6875 0 L 18.6875 -0.375 C 19.28125 -0.4375 19.757812 -0.582031 20.125 -0.8125 C 20.488281 -1.050781 20.765625 -1.359375 20.953125 -1.734375 C 21.148438 -2.117188 21.273438 -2.5625 21.328125 -3.0625 C 21.390625 -3.570312 21.421875 -4.132812 21.421875 -4.75 L 21.421875 -17.96875 L 8.875 -17.96875 L 8.875 -5.046875 C 8.875 -4.460938 8.898438 -3.894531 8.953125 -3.34375 C 9.015625 -2.800781 9.144531 -2.316406 9.34375 -1.890625 C 9.539062 -1.472656 9.820312 -1.128906 10.1875 -0.859375 C 10.550781 -0.597656 11.03125 -0.4375 11.625 -0.375 L 11.625 0 L 1.515625 0 L 1.515625 -0.375 C 2.128906 -0.457031 2.617188 -0.632812 2.984375 -0.90625 C 3.347656 -1.175781 3.617188 -1.515625 3.796875 -1.921875 C 3.984375 -2.328125 4.101562 -2.773438 4.15625 -3.265625 C 4.21875 -3.753906 4.25 -4.265625 4.25 -4.796875 L 4.25 -22.640625 C 4.25 -23.203125 4.21875 -23.75 4.15625 -24.28125 C 4.101562 -24.820312 3.976562 -25.300781 3.78125 -25.71875 C 3.59375 -26.132812 3.320312 -26.484375 2.96875 -26.765625 C 2.613281 -27.046875 2.128906 -27.226562 1.515625 -27.3125 L 1.515625 -27.703125 Z M 11.625 -27.703125 "/></g></g></g><g fill="#eeebe9" fill-opacity="1"><g transform="translate(64.029479, 34.174521)"><g><path d="M 12.921875 -19.15625 C 11.773438 -19.15625 10.78125 -18.9375 9.9375 -18.5 C 9.09375 -18.0625 8.40625 -17.46875 7.875 -16.71875 C 7.34375 -15.976562 6.945312 -15.117188 6.6875 -14.140625 C 6.4375 -13.160156 6.3125 -12.140625 6.3125 -11.078125 C 6.3125 -10.003906 6.4375 -8.90625 6.6875 -7.78125 C 6.945312 -6.664062 7.347656 -5.648438 7.890625 -4.734375 C 8.441406 -3.828125 9.148438 -3.078125 10.015625 -2.484375 C 10.890625 -1.890625 11.941406 -1.59375 13.171875 -1.59375 C 14.210938 -1.59375 15.140625 -1.832031 15.953125 -2.3125 C 16.765625 -2.789062 17.453125 -3.421875 18.015625 -4.203125 C 18.578125 -4.992188 19.003906 -5.894531 19.296875 -6.90625 C 19.585938 -7.914062 19.734375 -8.96875 19.734375 -10.0625 C 19.734375 -11.007812 19.628906 -12.015625 19.421875 -13.078125 C 19.210938 -14.148438 18.84375 -15.132812 18.3125 -16.03125 C 17.78125 -16.9375 17.078125 -17.679688 16.203125 -18.265625 C 15.335938 -18.859375 14.242188 -19.15625 12.921875 -19.15625 Z M 1.515625 -10.234375 C 1.515625 -11.910156 1.816406 -13.429688 2.421875 -14.796875 C 3.023438 -16.160156 3.851562 -17.3125 4.90625 -18.25 C 5.957031 -19.1875 7.191406 -19.90625 8.609375 -20.40625 C 10.023438 -20.914062 11.5625 -21.171875 13.21875 -21.171875 C 14.8125 -21.171875 16.296875 -20.9375 17.671875 -20.46875 C 19.046875 -20.007812 20.238281 -19.335938 21.25 -18.453125 C 22.257812 -17.566406 23.0625 -16.460938 23.65625 -15.140625 C 24.25 -13.828125 24.546875 -12.332031 24.546875 -10.65625 C 24.546875 -8.914062 24.234375 -7.359375 23.609375 -5.984375 C 22.992188 -4.609375 22.160156 -3.445312 21.109375 -2.5 C 20.054688 -1.5625 18.8125 -0.835938 17.375 -0.328125 C 15.945312 0.171875 14.421875 0.421875 12.796875 0.421875 C 11.191406 0.421875 9.703125 0.175781 8.328125 -0.3125 C 6.953125 -0.800781 5.757812 -1.5 4.75 -2.40625 C 3.738281 -3.320312 2.945312 -4.441406 2.375 -5.765625 C 1.800781 -7.085938 1.515625 -8.578125 1.515625 -10.234375 Z M 1.515625 -10.234375 "/></g></g></g><g fill="#eeebe9" fill-opacity="1"><g transform="translate(89.284223, 34.174521)"><g><path d="M 7.953125 -16.25 C 9.554688 -17.84375 11.109375 -19.0625 12.609375 -19.90625 C 14.109375 -20.75 15.570312 -21.171875 17 -21.171875 C 18.519531 -21.171875 19.675781 -20.742188 20.46875 -19.890625 C 21.269531 -19.035156 21.757812 -17.890625 21.9375 -16.453125 C 22.550781 -17.015625 23.207031 -17.578125 23.90625 -18.140625 C 24.613281 -18.703125 25.351562 -19.207031 26.125 -19.65625 C 26.894531 -20.101562 27.691406 -20.46875 28.515625 -20.75 C 29.347656 -21.03125 30.179688 -21.171875 31.015625 -21.171875 C 31.921875 -21.171875 32.679688 -20.988281 33.296875 -20.625 C 33.910156 -20.257812 34.40625 -19.78125 34.78125 -19.1875 C 35.164062 -18.601562 35.4375 -17.925781 35.59375 -17.15625 C 35.75 -16.382812 35.828125 -15.59375 35.828125 -14.78125 L 35.828125 -4.71875 C 35.828125 -3.507812 35.976562 -2.5 36.28125 -1.6875 C 36.59375 -0.875 37.3125 -0.4375 38.4375 -0.375 L 38.4375 0 L 29.171875 0 L 29.171875 -0.375 C 30.179688 -0.519531 30.828125 -0.988281 31.109375 -1.78125 C 31.390625 -2.582031 31.53125 -3.570312 31.53125 -4.75 L 31.53125 -13.171875 C 31.53125 -14.691406 31.3125 -15.898438 30.875 -16.796875 C 30.4375 -17.691406 29.5625 -18.140625 28.25 -18.140625 C 28.101562 -18.140625 27.867188 -18.117188 27.546875 -18.078125 C 27.222656 -18.035156 26.835938 -17.921875 26.390625 -17.734375 C 25.941406 -17.554688 25.457031 -17.285156 24.9375 -16.921875 C 24.414062 -16.554688 23.921875 -16.066406 23.453125 -15.453125 C 22.972656 -14.804688 22.59375 -14.019531 22.3125 -13.09375 C 22.03125 -12.164062 21.890625 -10.890625 21.890625 -9.265625 L 21.890625 -4.71875 C 21.890625 -4.125 21.914062 -3.566406 21.96875 -3.046875 C 22.03125 -2.523438 22.15625 -2.078125 22.34375 -1.703125 C 22.539062 -1.328125 22.804688 -1.019531 23.140625 -0.78125 C 23.484375 -0.539062 23.953125 -0.40625 24.546875 -0.375 L 24.546875 0 L 15.203125 0 L 15.203125 -0.375 C 15.734375 -0.4375 16.148438 -0.582031 16.453125 -0.8125 C 16.765625 -1.050781 17.003906 -1.367188 17.171875 -1.765625 C 17.335938 -2.160156 17.445312 -2.609375 17.5 -3.109375 C 17.5625 -3.617188 17.59375 -4.164062 17.59375 -4.75 L 17.59375 -13.140625 C 17.59375 -14.765625 17.359375 -16.003906 16.890625 -16.859375 C 16.429688 -17.710938 15.597656 -18.140625 14.390625 -18.140625 C 14.003906 -18.140625 13.519531 -18.054688 12.9375 -17.890625 C 12.363281 -17.722656 11.6875 -17.359375 10.90625 -16.796875 C 10.007812 -16.148438 9.289062 -15.332031 8.75 -14.34375 C 8.21875 -13.363281 7.953125 -12.046875 7.953125 -10.390625 L 7.953125 -4.75 C 7.953125 -4.132812 7.976562 -3.570312 8.03125 -3.0625 C 8.09375 -2.5625 8.210938 -2.117188 8.390625 -1.734375 C 8.578125 -1.359375 8.832031 -1.050781 9.15625 -0.8125 C 9.476562 -0.582031 9.90625 -0.4375 10.4375 -0.375 L 10.4375 0 L 1.140625 0 L 1.140625 -0.375 C 2.203125 -0.488281 2.882812 -0.9375 3.1875 -1.71875 C 3.5 -2.507812 3.65625 -3.519531 3.65625 -4.75 L 3.65625 -15.453125 C 3.65625 -16.628906 3.507812 -17.613281 3.21875 -18.40625 C 2.925781 -19.207031 2.234375 -19.679688 1.140625 -19.828125 L 1.140625 -20.203125 L 6.859375 -20.75 C 7.253906 -20.070312 7.519531 -19.363281 7.65625 -18.625 C 7.800781 -17.882812 7.898438 -17.09375 7.953125 -16.25 Z M 7.953125 -16.25 "/></g></g></g><g fill="#eeebe9" fill-opacity="1"><g transform="translate(128.008215, 34.174521)"><g><path d="M 12.125 -19.15625 C 11.113281 -19.09375 10.234375 -18.828125 9.484375 -18.359375 C 8.742188 -17.898438 8.128906 -17.300781 7.640625 -16.5625 C 7.148438 -15.820312 6.789062 -14.988281 6.5625 -14.0625 C 6.34375 -13.132812 6.234375 -12.191406 6.234375 -11.234375 L 17.640625 -14.484375 C 17.441406 -15.046875 17.179688 -15.613281 16.859375 -16.1875 C 16.535156 -16.757812 16.148438 -17.269531 15.703125 -17.71875 C 15.253906 -18.164062 14.734375 -18.519531 14.140625 -18.78125 C 13.554688 -19.050781 12.882812 -19.175781 12.125 -19.15625 Z M 1.6875 -10.359375 C 1.6875 -11.929688 1.972656 -13.382812 2.546875 -14.71875 C 3.117188 -16.050781 3.898438 -17.191406 4.890625 -18.140625 C 5.890625 -19.097656 7.0625 -19.84375 8.40625 -20.375 C 9.757812 -20.90625 11.207031 -21.171875 12.75 -21.171875 C 13.90625 -21.171875 15.007812 -21 16.0625 -20.65625 C 17.113281 -20.320312 18.070312 -19.835938 18.9375 -19.203125 C 19.8125 -18.578125 20.554688 -17.820312 21.171875 -16.9375 C 21.785156 -16.050781 22.25 -15.050781 22.5625 -13.9375 L 6.484375 -9.46875 C 6.648438 -8.375 7 -7.34375 7.53125 -6.375 C 8.0625 -5.40625 8.710938 -4.566406 9.484375 -3.859375 C 10.265625 -3.160156 11.144531 -2.609375 12.125 -2.203125 C 13.101562 -1.796875 14.140625 -1.59375 15.234375 -1.59375 C 15.546875 -1.59375 16.015625 -1.65625 16.640625 -1.78125 C 17.273438 -1.914062 17.945312 -2.171875 18.65625 -2.546875 C 19.375 -2.921875 20.082031 -3.453125 20.78125 -4.140625 C 21.488281 -4.828125 22.082031 -5.734375 22.5625 -6.859375 L 22.9375 -6.6875 L 20.75 0.25 C 20.550781 0.0507812 20.101562 -0.046875 19.40625 -0.046875 C 18.925781 -0.046875 18.507812 -0.0195312 18.15625 0.03125 C 17.8125 0.09375 17.4375 0.148438 17.03125 0.203125 C 16.625 0.265625 16.148438 0.320312 15.609375 0.375 C 15.078125 0.4375 14.40625 0.46875 13.59375 0.46875 C 12.976562 0.46875 12.25 0.378906 11.40625 0.203125 C 10.5625 0.0351562 9.695312 -0.21875 8.8125 -0.5625 C 7.9375 -0.914062 7.066406 -1.375 6.203125 -1.9375 C 5.347656 -2.5 4.582031 -3.175781 3.90625 -3.96875 C 3.238281 -4.769531 2.703125 -5.695312 2.296875 -6.75 C 1.890625 -7.800781 1.6875 -9.003906 1.6875 -10.359375 Z M 1.6875 -10.359375 "/></g></g></g></svg>