<svg xmlns="http://www.w3.org/2000/svg" xmlns:xlink="http://www.w3.org/1999/xlink" width="250" zoomAndPan="magnify" viewBox="0 0 187.5 52.499999" height="70" preserveAspectRatio="xMidYMid meet" version="1.0"><defs><g/><clipPath id="31a8ba5d8c"><path d="M 18 0 L 169 0 L 169 52.003906 L 18 52.003906 Z M 18 0 " clip-rule="nonzero"/></clipPath></defs><g clip-path="url(#31a8ba5d8c)"><path stroke-linecap="butt" transform="matrix(0.742924, 0, 0, 0.742924, 27.57742, 7.800702)" fill="none" stroke-linejoin="miter" d="M 25.039244 -1.277573 L 25.039244 -0.767553 C 24.245295 -0.693942 23.603827 -0.488882 23.114839 -0.147116 C 22.625851 0.19465 22.247279 0.620543 21.979125 1.125304 C 21.721486 1.635324 21.553232 2.229471 21.469105 2.913003 C 21.395494 3.591277 21.358688 4.332646 21.358688 5.126594 L 21.358688 9.080563 L 38.247181 9.080563 L 38.247181 6.136118 C 38.247181 5.158142 38.205118 4.264293 38.120991 3.449313 C 38.04738 2.63959 37.889642 1.935027 37.637261 1.335622 C 37.400653 0.725701 37.037856 0.241971 36.548868 -0.115569 C 36.05988 -0.478366 35.397379 -0.693942 34.566625 -0.767553 L 34.566625 -1.277573 L 48.168908 -1.277573 L 48.168908 -0.767553 C 47.37496 -0.657136 46.728233 -0.441561 46.228729 -0.115569 C 45.739741 0.205166 45.36117 0.631058 45.093015 1.156852 C 44.835376 1.682646 44.667122 2.276793 44.582995 2.939293 C 44.509384 3.601793 44.472579 4.332646 44.472579 5.126594 L 44.472579 29.192171 C 44.472579 30.033441 44.5199 30.811616 44.609285 31.531953 C 44.714444 32.241775 44.882698 32.883243 45.124563 33.456358 C 45.371686 34.018958 45.739741 34.47114 46.228729 34.812906 C 46.728233 35.149414 47.37496 35.375505 48.168908 35.485922 L 48.168908 36.0012 L 34.566625 36.0012 L 34.566625 35.485922 C 35.360574 35.412311 36.002042 35.217767 36.49103 34.891775 C 36.980018 34.571041 37.353332 34.155664 37.610971 33.650902 C 37.879126 33.140882 38.04738 32.546735 38.120991 31.863203 C 38.205118 31.179672 38.247181 30.427787 38.247181 29.597033 L 38.247181 11.804174 L 21.358688 11.804174 L 21.358688 29.192171 C 21.358688 29.98612 21.395494 30.753779 21.469105 31.48989 C 21.553232 32.226001 21.721486 32.883243 21.979125 33.456358 C 22.247279 34.018958 22.625851 34.476398 23.114839 34.839196 C 23.603827 35.196735 24.245295 35.412311 25.039244 35.485922 L 25.039244 36.0012 L 11.442219 36.0012 L 11.442219 35.485922 C 12.278231 35.375505 12.940731 35.144156 13.429719 34.781358 C 13.918707 34.423819 14.286763 33.971636 14.52337 33.424811 C 14.775751 32.872727 14.933489 32.268065 15.0071 31.61608 C 15.091227 30.95358 15.133291 30.259533 15.133291 29.539195 L 15.133291 5.510424 C 15.133291 4.753281 15.091227 4.022428 15.0071 3.312606 C 14.933489 2.592269 14.765235 1.950801 14.49708 1.388201 C 14.239442 0.820344 13.876644 0.341872 13.40343 -0.0366996 C 12.935473 -0.415271 12.278231 -0.657136 11.442219 -0.767553 L 11.442219 -1.277573 Z M 66.456013 10.216277 C 64.915437 10.216277 63.574663 10.510722 62.444207 11.099611 C 61.308492 11.683242 60.383095 12.47719 59.662758 13.481456 C 58.942421 14.475206 58.411369 15.63721 58.069603 16.967468 C 57.727837 18.281952 57.559583 19.66479 57.559583 21.100207 C 57.559583 22.530365 57.727837 24.002588 58.069603 25.516874 C 58.411369 27.025902 58.952937 28.398223 59.689048 29.623322 C 60.425159 30.848422 61.382103 31.857945 62.554623 32.651894 C 63.721885 33.445842 65.141528 33.840188 66.797778 33.840188 C 68.201648 33.840188 69.447779 33.524711 70.536172 32.888501 C 71.629822 32.241775 72.560477 31.395247 73.312362 30.34366 C 74.069505 29.281556 74.647878 28.072231 75.042223 26.715683 C 75.441827 25.353878 75.63637 23.934235 75.63637 22.456754 C 75.63637 21.173818 75.494406 19.81727 75.210477 18.376595 C 74.931807 16.935921 74.437561 15.616178 73.717223 14.406853 C 72.996886 13.197528 72.050457 12.19852 70.877937 11.404571 C 69.710675 10.610623 68.233195 10.216277 66.456013 10.216277 Z M 51.097579 22.235921 C 51.097579 19.96975 51.50244 17.919155 52.31742 16.094651 C 53.137658 14.259631 54.252341 12.708539 55.661468 11.446635 C 57.086369 10.174214 58.742619 9.201496 60.645992 8.52848 C 62.554623 7.844948 64.620993 7.503182 66.855616 7.503182 C 69.01137 7.503182 71.014644 7.818658 72.86018 8.444353 C 74.710973 9.064789 76.314644 9.963896 77.671192 11.157448 C 79.038255 12.345742 80.116133 13.82848 80.910081 15.610921 C 81.704029 17.382845 82.098375 19.401893 82.098375 21.668064 C 82.098375 24.013104 81.682998 26.11102 80.852244 27.961814 C 80.02149 29.80735 78.896291 31.363699 77.476648 32.63612 C 76.067521 33.903283 74.400755 34.876001 72.471092 35.559533 C 70.54143 36.232549 68.480318 36.569057 66.287759 36.569057 C 64.137262 36.569057 62.139246 36.237807 60.283195 35.585823 C 58.432401 34.923323 56.823472 33.976894 55.456409 32.751795 C 54.099861 31.510922 53.037758 30.01241 52.259583 28.240485 C 51.486666 26.458044 51.097579 24.460028 51.097579 22.235921 Z M 93.765737 14.128182 C 95.921491 11.972428 98.01415 10.331952 100.033197 9.206753 C 102.052245 8.071039 104.023971 7.503182 105.953634 7.503182 C 107.988456 7.503182 109.544805 8.081555 110.612166 9.233043 C 111.695301 10.384531 112.347286 11.919849 112.578635 13.838996 C 113.409389 13.092369 114.292722 12.340484 115.233893 11.583341 C 116.185579 10.826198 117.174072 10.153182 118.209885 9.553777 C 119.250957 8.943857 120.328834 8.449611 121.443516 8.071039 C 122.563457 7.692468 123.688655 7.503182 124.819112 7.503182 C 126.028437 7.503182 127.048477 7.750305 127.879231 8.239293 C 128.709985 8.728281 129.377743 9.364492 129.882505 10.15844 C 130.397783 10.952388 130.76058 11.872527 130.960382 12.913599 C 131.175957 13.95467 131.281116 15.022032 131.281116 16.110425 L 131.281116 29.649612 C 131.281116 31.274314 131.486176 32.63612 131.901553 33.729771 C 132.31693 34.82868 133.28439 35.412311 134.793418 35.485922 L 134.793418 36.0012 L 122.332108 36.0012 L 122.332108 35.485922 C 123.688655 35.301894 124.550957 34.670942 124.929528 33.593065 C 125.3081 32.515188 125.497386 31.179672 125.497386 29.597033 L 125.497386 18.266179 C 125.497386 16.226099 125.202941 14.606655 124.614052 13.397329 C 124.030421 12.188004 122.852643 11.583341 121.070203 11.583341 C 120.886175 11.583341 120.581215 11.614889 120.144806 11.667468 C 119.713655 11.725305 119.193119 11.877785 118.583199 12.124908 C 117.983794 12.361516 117.33181 12.734829 116.632504 13.229075 C 115.933198 13.718063 115.260183 14.380563 114.613456 15.211317 C 113.977246 16.073619 113.467226 17.130464 113.088655 18.376595 C 112.710083 19.622726 112.520797 21.342072 112.520797 23.534631 L 112.520797 29.649612 C 112.520797 30.44356 112.562861 31.190188 112.636472 31.889493 C 112.710083 32.594057 112.878337 33.198719 113.146492 33.703481 C 113.414647 34.213501 113.772186 34.62362 114.224369 34.949612 C 114.676552 35.270347 115.296988 35.449116 116.090937 35.485922 L 116.090937 36.0012 L 103.51921 36.0012 L 103.51921 35.485922 C 104.229031 35.412311 104.79163 35.217767 105.207007 34.891775 C 105.627642 34.571041 105.953634 34.145148 106.174468 33.619354 C 106.405817 33.093561 106.558297 32.488898 106.631908 31.810624 C 106.705519 31.127092 106.742325 30.390981 106.742325 29.597033 L 106.742325 18.324016 C 106.742325 16.126198 106.426849 14.459432 105.801154 13.313202 C 105.180718 12.161714 104.060777 11.583341 102.441332 11.583341 C 101.905023 11.583341 101.247781 11.699016 100.474864 11.930365 C 99.707205 12.151198 98.797582 12.640186 97.735479 13.397329 C 96.526154 14.264889 95.563951 15.35854 94.843614 16.688798 C 94.123276 18.00854 93.765737 19.780464 93.765737 21.999314 L 93.765737 29.597033 C 93.765737 30.427787 93.802542 31.179672 93.876153 31.863203 C 93.96028 32.546735 94.123276 33.140882 94.359884 33.650902 C 94.612264 34.155664 94.948772 34.571041 95.385181 34.891775 C 95.816332 35.217767 96.394705 35.412311 97.115042 35.485922 L 97.115042 36.0012 L 84.595895 36.0012 L 84.595895 35.485922 C 86.026054 35.3387 86.946193 34.734037 87.36157 33.677192 C 87.776947 32.615088 87.982006 31.253283 87.982006 29.597033 L 87.982006 15.211317 C 87.982006 13.62342 87.787462 12.287904 87.387859 11.210027 C 86.993514 10.13215 86.062859 9.501198 84.595895 9.31717 L 84.595895 8.801892 L 92.298772 8.071039 C 92.824566 8.975404 93.182106 9.927091 93.366133 10.936615 C 93.560677 11.930365 93.692126 12.997726 93.765737 14.128182 Z M 151.503141 10.216277 C 150.141336 10.300404 148.9583 10.652686 147.948776 11.278381 C 146.955026 11.898817 146.124272 12.708539 145.461772 13.712805 C 144.80453 14.711813 144.326058 15.831754 144.021097 17.077885 C 143.716137 18.324016 143.563657 19.585921 143.563657 20.868857 L 158.92209 16.510028 C 158.664451 15.752885 158.31217 14.985226 157.870503 14.212309 C 157.434094 13.439393 156.913558 12.750603 156.303638 12.151198 C 155.704233 11.541277 155.010185 11.057547 154.216237 10.700008 C 153.422288 10.33721 152.517923 10.179472 151.503141 10.216277 Z M 137.453934 22.057151 C 137.453934 19.943461 137.837763 17.992766 138.615938 16.205067 C 139.388855 14.406853 140.4457 12.866278 141.781216 11.583341 C 143.127248 10.295146 144.704629 9.29088 146.513359 8.581059 C 148.327348 7.86598 150.272784 7.503182 152.349669 7.503182 C 153.900761 7.503182 155.378241 7.729273 156.787368 8.181456 C 158.212269 8.633638 159.505721 9.285623 160.678241 10.13215 C 161.850761 10.978678 162.849769 11.998718 163.680523 13.187012 C 164.511277 14.380563 165.131714 15.731853 165.547091 17.240881 L 143.910681 23.245445 C 144.131514 24.722925 144.604728 26.116278 145.319808 27.425505 C 146.040145 28.724215 146.91822 29.849414 147.948776 30.8011 C 148.995106 31.737013 150.172883 32.48364 151.492626 33.025207 C 152.817626 33.572033 154.221495 33.840188 155.698975 33.840188 C 156.114352 33.840188 156.745304 33.761319 157.591832 33.593065 C 158.43836 33.419553 159.342725 33.077787 160.304928 32.567767 C 161.272388 32.063005 162.224075 31.347926 163.165245 30.427787 C 164.116932 29.491874 164.91088 28.272033 165.547091 26.757747 L 166.057111 26.994354 L 163.112666 36.348224 C 162.855027 36.080069 162.250364 35.943362 161.298678 35.943362 C 160.662467 35.943362 160.105126 35.980168 159.626654 36.053779 C 159.15344 36.12739 158.64342 36.201001 158.091336 36.274612 C 157.544511 36.358739 156.913558 36.437608 156.193221 36.51122 C 155.4834 36.584831 154.579034 36.621636 153.485384 36.621636 C 152.65463 36.621636 151.671395 36.505962 150.535681 36.274612 C 149.405225 36.053779 148.243221 35.712013 147.049669 35.238799 C 145.861375 34.770843 144.688855 34.155664 143.537367 33.398521 C 142.385879 32.641378 141.355323 31.726497 140.450958 30.64862 C 139.551851 29.565485 138.820998 28.324612 138.268914 26.910227 C 137.722089 25.490584 137.453934 23.871139 137.453934 22.057151 Z M 137.453934 22.057151 " stroke="#eeebe9" stroke-width="4.250002" stroke-opacity="1" stroke-miterlimit="4"/></g><g fill="#320003" fill-opacity="1"><g transform="translate(34.565554, 34.545984)"><g><path d="M 11.625 -27.703125 L 11.625 -27.3125 C 11.03125 -27.257812 10.550781 -27.109375 10.1875 -26.859375 C 9.820312 -26.609375 9.539062 -26.289062 9.34375 -25.90625 C 9.144531 -25.53125 9.015625 -25.085938 8.953125 -24.578125 C 8.898438 -24.078125 8.875 -23.53125 8.875 -22.9375 L 8.875 -20 L 21.421875 -20 L 21.421875 -22.1875 C 21.421875 -22.914062 21.390625 -23.582031 21.328125 -24.1875 C 21.273438 -24.789062 21.15625 -25.316406 20.96875 -25.765625 C 20.789062 -26.210938 20.519531 -26.566406 20.15625 -26.828125 C 19.789062 -27.097656 19.300781 -27.257812 18.6875 -27.3125 L 18.6875 -27.703125 L 28.796875 -27.703125 L 28.796875 -27.3125 C 28.203125 -27.226562 27.722656 -27.066406 27.359375 -26.828125 C 26.992188 -26.597656 26.710938 -26.285156 26.515625 -25.890625 C 26.316406 -25.492188 26.191406 -25.050781 26.140625 -24.5625 C 26.085938 -24.070312 26.0625 -23.53125 26.0625 -22.9375 L 26.0625 -5.046875 C 26.0625 -4.429688 26.09375 -3.859375 26.15625 -3.328125 C 26.226562 -2.796875 26.351562 -2.316406 26.53125 -1.890625 C 26.71875 -1.472656 26.992188 -1.132812 27.359375 -0.875 C 27.722656 -0.625 28.203125 -0.457031 28.796875 -0.375 L 28.796875 0 L 18.6875 0 L 18.6875 -0.375 C 19.28125 -0.4375 19.757812 -0.582031 20.125 -0.8125 C 20.488281 -1.050781 20.765625 -1.359375 20.953125 -1.734375 C 21.148438 -2.117188 21.273438 -2.5625 21.328125 -3.0625 C 21.390625 -3.570312 21.421875 -4.132812 21.421875 -4.75 L 21.421875 -17.96875 L 8.875 -17.96875 L 8.875 -5.046875 C 8.875 -4.460938 8.898438 -3.894531 8.953125 -3.34375 C 9.015625 -2.800781 9.144531 -2.316406 9.34375 -1.890625 C 9.539062 -1.472656 9.820312 -1.128906 10.1875 -0.859375 C 10.550781 -0.597656 11.03125 -0.4375 11.625 -0.375 L 11.625 0 L 1.515625 0 L 1.515625 -0.375 C 2.128906 -0.457031 2.617188 -0.632812 2.984375 -0.90625 C 3.347656 -1.175781 3.617188 -1.515625 3.796875 -1.921875 C 3.984375 -2.328125 4.101562 -2.773438 4.15625 -3.265625 C 4.21875 -3.753906 4.25 -4.265625 4.25 -4.796875 L 4.25 -22.640625 C 4.25 -23.203125 4.21875 -23.75 4.15625 -24.28125 C 4.101562 -24.820312 3.976562 -25.300781 3.78125 -25.71875 C 3.59375 -26.132812 3.320312 -26.484375 2.96875 -26.765625 C 2.613281 -27.046875 2.128906 -27.226562 1.515625 -27.3125 L 1.515625 -27.703125 Z M 11.625 -27.703125 "/></g></g></g><g fill="#320003" fill-opacity="1"><g transform="translate(64.029383, 34.545984)"><g><path d="M 12.921875 -19.15625 C 11.773438 -19.15625 10.78125 -18.9375 9.9375 -18.5 C 9.09375 -18.0625 8.40625 -17.46875 7.875 -16.71875 C 7.34375 -15.976562 6.945312 -15.117188 6.6875 -14.140625 C 6.4375 -13.160156 6.3125 -12.140625 6.3125 -11.078125 C 6.3125 -10.003906 6.4375 -8.90625 6.6875 -7.78125 C 6.945312 -6.664062 7.347656 -5.648438 7.890625 -4.734375 C 8.441406 -3.828125 9.148438 -3.078125 10.015625 -2.484375 C 10.890625 -1.890625 11.941406 -1.59375 13.171875 -1.59375 C 14.210938 -1.59375 15.140625 -1.832031 15.953125 -2.3125 C 16.765625 -2.789062 17.453125 -3.421875 18.015625 -4.203125 C 18.578125 -4.992188 19.003906 -5.894531 19.296875 -6.90625 C 19.585938 -7.914062 19.734375 -8.96875 19.734375 -10.0625 C 19.734375 -11.007812 19.628906 -12.015625 19.421875 -13.078125 C 19.210938 -14.148438 18.84375 -15.132812 18.3125 -16.03125 C 17.78125 -16.9375 17.078125 -17.679688 16.203125 -18.265625 C 15.335938 -18.859375 14.242188 -19.15625 12.921875 -19.15625 Z M 1.515625 -10.234375 C 1.515625 -11.910156 1.816406 -13.429688 2.421875 -14.796875 C 3.023438 -16.160156 3.851562 -17.3125 4.90625 -18.25 C 5.957031 -19.1875 7.191406 -19.90625 8.609375 -20.40625 C 10.023438 -20.914062 11.5625 -21.171875 13.21875 -21.171875 C 14.8125 -21.171875 16.296875 -20.9375 17.671875 -20.46875 C 19.046875 -20.007812 20.238281 -19.335938 21.25 -18.453125 C 22.257812 -17.566406 23.0625 -16.460938 23.65625 -15.140625 C 24.25 -13.828125 24.546875 -12.332031 24.546875 -10.65625 C 24.546875 -8.914062 24.234375 -7.359375 23.609375 -5.984375 C 22.992188 -4.609375 22.160156 -3.445312 21.109375 -2.5 C 20.054688 -1.5625 18.8125 -0.835938 17.375 -0.328125 C 15.945312 0.171875 14.421875 0.421875 12.796875 0.421875 C 11.191406 0.421875 9.703125 0.175781 8.328125 -0.3125 C 6.953125 -0.800781 5.757812 -1.5 4.75 -2.40625 C 3.738281 -3.320312 2.945312 -4.441406 2.375 -5.765625 C 1.800781 -7.085938 1.515625 -8.578125 1.515625 -10.234375 Z M 1.515625 -10.234375 "/></g></g></g><g fill="#320003" fill-opacity="1"><g transform="translate(89.284063, 34.545984)"><g><path d="M 7.953125 -16.25 C 9.554688 -17.84375 11.109375 -19.0625 12.609375 -19.90625 C 14.109375 -20.75 15.570312 -21.171875 17 -21.171875 C 18.519531 -21.171875 19.675781 -20.742188 20.46875 -19.890625 C 21.269531 -19.035156 21.757812 -17.890625 21.9375 -16.453125 C 22.550781 -17.015625 23.207031 -17.578125 23.90625 -18.140625 C 24.613281 -18.703125 25.351562 -19.207031 26.125 -19.65625 C 26.894531 -20.101562 27.691406 -20.46875 28.515625 -20.75 C 29.347656 -21.03125 30.179688 -21.171875 31.015625 -21.171875 C 31.921875 -21.171875 32.679688 -20.988281 33.296875 -20.625 C 33.910156 -20.257812 34.40625 -19.78125 34.78125 -19.1875 C 35.164062 -18.601562 35.4375 -17.925781 35.59375 -17.15625 C 35.75 -16.382812 35.828125 -15.59375 35.828125 -14.78125 L 35.828125 -4.71875 C 35.828125 -3.507812 35.976562 -2.5 36.28125 -1.6875 C 36.59375 -0.875 37.3125 -0.4375 38.4375 -0.375 L 38.4375 0 L 29.171875 0 L 29.171875 -0.375 C 30.179688 -0.519531 30.828125 -0.988281 31.109375 -1.78125 C 31.390625 -2.582031 31.53125 -3.570312 31.53125 -4.75 L 31.53125 -13.171875 C 31.53125 -14.691406 31.3125 -15.898438 30.875 -16.796875 C 30.4375 -17.691406 29.5625 -18.140625 28.25 -18.140625 C 28.101562 -18.140625 27.867188 -18.117188 27.546875 -18.078125 C 27.222656 -18.035156 26.835938 -17.921875 26.390625 -17.734375 C 25.941406 -17.554688 25.457031 -17.285156 24.9375 -16.921875 C 24.414062 -16.554688 23.921875 -16.066406 23.453125 -15.453125 C 22.972656 -14.804688 22.59375 -14.019531 22.3125 -13.09375 C 22.03125 -12.164062 21.890625 -10.890625 21.890625 -9.265625 L 21.890625 -4.71875 C 21.890625 -4.125 21.914062 -3.566406 21.96875 -3.046875 C 22.03125 -2.523438 22.15625 -2.078125 22.34375 -1.703125 C 22.539062 -1.328125 22.804688 -1.019531 23.140625 -0.78125 C 23.484375 -0.539062 23.953125 -0.40625 24.546875 -0.375 L 24.546875 0 L 15.203125 0 L 15.203125 -0.375 C 15.734375 -0.4375 16.148438 -0.582031 16.453125 -0.8125 C 16.765625 -1.050781 17.003906 -1.367188 17.171875 -1.765625 C 17.335938 -2.160156 17.445312 -2.609375 17.5 -3.109375 C 17.5625 -3.617188 17.59375 -4.164062 17.59375 -4.75 L 17.59375 -13.140625 C 17.59375 -14.765625 17.359375 -16.003906 16.890625 -16.859375 C 16.429688 -17.710938 15.597656 -18.140625 14.390625 -18.140625 C 14.003906 -18.140625 13.519531 -18.054688 12.9375 -17.890625 C 12.363281 -17.722656 11.6875 -17.359375 10.90625 -16.796875 C 10.007812 -16.148438 9.289062 -15.332031 8.75 -14.34375 C 8.21875 -13.363281 7.953125 -12.046875 7.953125 -10.390625 L 7.953125 -4.75 C 7.953125 -4.132812 7.976562 -3.570312 8.03125 -3.0625 C 8.09375 -2.5625 8.210938 -2.117188 8.390625 -1.734375 C 8.578125 -1.359375 8.832031 -1.050781 9.15625 -0.8125 C 9.476562 -0.582031 9.90625 -0.4375 10.4375 -0.375 L 10.4375 0 L 1.140625 0 L 1.140625 -0.375 C 2.203125 -0.488281 2.882812 -0.9375 3.1875 -1.71875 C 3.5 -2.507812 3.65625 -3.519531 3.65625 -4.75 L 3.65625 -15.453125 C 3.65625 -16.628906 3.507812 -17.613281 3.21875 -18.40625 C 2.925781 -19.207031 2.234375 -19.679688 1.140625 -19.828125 L 1.140625 -20.203125 L 6.859375 -20.75 C 7.253906 -20.070312 7.519531 -19.363281 7.65625 -18.625 C 7.800781 -17.882812 7.898438 -17.09375 7.953125 -16.25 Z M 7.953125 -16.25 "/></g></g></g><g fill="#320003" fill-opacity="1"><g transform="translate(128.007986, 34.545984)"><g><path d="M 12.125 -19.15625 C 11.113281 -19.09375 10.234375 -18.828125 9.484375 -18.359375 C 8.742188 -17.898438 8.128906 -17.300781 7.640625 -16.5625 C 7.148438 -15.820312 6.789062 -14.988281 6.5625 -14.0625 C 6.34375 -13.132812 6.234375 -12.191406 6.234375 -11.234375 L 17.640625 -14.484375 C 17.441406 -15.046875 17.179688 -15.613281 16.859375 -16.1875 C 16.535156 -16.757812 16.148438 -17.269531 15.703125 -17.71875 C 15.253906 -18.164062 14.734375 -18.519531 14.140625 -18.78125 C 13.554688 -19.050781 12.882812 -19.175781 12.125 -19.15625 Z M 1.6875 -10.359375 C 1.6875 -11.929688 1.972656 -13.382812 2.546875 -14.71875 C 3.117188 -16.050781 3.898438 -17.191406 4.890625 -18.140625 C 5.890625 -19.097656 7.0625 -19.84375 8.40625 -20.375 C 9.757812 -20.90625 11.207031 -21.171875 12.75 -21.171875 C 13.90625 -21.171875 15.007812 -21 16.0625 -20.65625 C 17.113281 -20.320312 18.070312 -19.835938 18.9375 -19.203125 C 19.8125 -18.578125 20.554688 -17.820312 21.171875 -16.9375 C 21.785156 -16.050781 22.25 -15.050781 22.5625 -13.9375 L 6.484375 -9.46875 C 6.648438 -8.375 7 -7.34375 7.53125 -6.375 C 8.0625 -5.40625 8.710938 -4.566406 9.484375 -3.859375 C 10.265625 -3.160156 11.144531 -2.609375 12.125 -2.203125 C 13.101562 -1.796875 14.140625 -1.59375 15.234375 -1.59375 C 15.546875 -1.59375 16.015625 -1.65625 16.640625 -1.78125 C 17.273438 -1.914062 17.945312 -2.171875 18.65625 -2.546875 C 19.375 -2.921875 20.082031 -3.453125 20.78125 -4.140625 C 21.488281 -4.828125 22.082031 -5.734375 22.5625 -6.859375 L 22.9375 -6.6875 L 20.75 0.25 C 20.550781 0.0507812 20.101562 -0.046875 19.40625 -0.046875 C 18.925781 -0.046875 18.507812 -0.0195312 18.15625 0.03125 C 17.8125 0.09375 17.4375 0.148438 17.03125 0.203125 C 16.625 0.265625 16.148438 0.320312 15.609375 0.375 C 15.078125 0.4375 14.40625 0.46875 13.59375 0.46875 C 12.976562 0.46875 12.25 0.378906 11.40625 0.203125 C 10.5625 0.0351562 9.695312 -0.21875 8.8125 -0.5625 C 7.9375 -0.914062 7.066406 -1.375 6.203125 -1.9375 C 5.347656 -2.5 4.582031 -3.175781 3.90625 -3.96875 C 3.238281 -4.769531 2.703125 -5.695312 2.296875 -6.75 C 1.890625 -7.800781 1.6875 -9.003906 1.6875 -10.359375 Z M 1.6875 -10.359375 "/></g></g></g></svg>