<svg xmlns="http://www.w3.org/2000/svg" xmlns:xlink="http://www.w3.org/1999/xlink" width="150" zoomAndPan="magnify" viewBox="0 0 112.5 112.499997" height="150" preserveAspectRatio="xMidYMid meet" version="1.0"><defs><clipPath id="be8f34569e"><path d="M 11.207031 18.984375 L 100.796875 18.984375 L 100.796875 33.832031 L 11.207031 33.832031 Z M 11.207031 18.984375 " clip-rule="nonzero"/></clipPath><clipPath id="0f87f803d5"><path d="M 11.207031 48.332031 L 100.796875 48.332031 L 100.796875 63.523438 L 11.207031 63.523438 Z M 11.207031 48.332031 " clip-rule="nonzero"/></clipPath><clipPath id="d052053b87"><path d="M 11.207031 78.023438 L 100.796875 78.023438 L 100.796875 92.90625 L 11.207031 92.90625 Z M 11.207031 78.023438 " clip-rule="nonzero"/></clipPath><clipPath id="ee1013db78"><path d="M 11.207031 18.984375 L 100.796875 18.984375 L 100.796875 33.832031 L 11.207031 33.832031 Z M 11.207031 18.984375 " clip-rule="nonzero"/></clipPath><clipPath id="a7a05212e9"><path d="M 11.207031 48.332031 L 100.796875 48.332031 L 100.796875 63.523438 L 11.207031 63.523438 Z M 11.207031 48.332031 " clip-rule="nonzero"/></clipPath><clipPath id="a7e49c0627"><path d="M 11.207031 78.023438 L 100.796875 78.023438 L 100.796875 92.90625 L 11.207031 92.90625 Z M 11.207031 78.023438 " clip-rule="nonzero"/></clipPath></defs><g clip-path="url(#be8f34569e)"><path fill="#1e1e1e" d="M 93.390625 33.769531 L 18.613281 33.769531 C 14.523438 33.769531 11.207031 30.460938 11.207031 26.378906 C 11.207031 22.296875 14.523438 18.984375 18.613281 18.984375 L 93.390625 18.984375 C 97.480469 18.984375 100.796875 22.296875 100.796875 26.378906 C 100.796875 30.460938 97.480469 33.769531 93.390625 33.769531 " fill-opacity="1" fill-rule="nonzero"/></g><g clip-path="url(#0f87f803d5)"><path fill="#1e1e1e" d="M 93.390625 63.34375 L 18.613281 63.34375 C 14.523438 63.34375 11.207031 60.035156 11.207031 55.953125 C 11.207031 51.867188 14.523438 48.558594 18.613281 48.558594 L 93.390625 48.558594 C 97.480469 48.558594 100.796875 51.867188 100.796875 55.953125 C 100.796875 60.035156 97.480469 63.34375 93.390625 63.34375 " fill-opacity="1" fill-rule="nonzero"/></g><g clip-path="url(#d052053b87)"><path fill="#1e1e1e" d="M 93.390625 92.917969 L 18.613281 92.917969 C 14.523438 92.917969 11.207031 89.609375 11.207031 85.527344 C 11.207031 81.441406 14.523438 78.132812 18.613281 78.132812 L 93.390625 78.132812 C 97.480469 78.132812 100.796875 81.441406 100.796875 85.527344 C 100.796875 89.609375 97.480469 92.917969 93.390625 92.917969 " fill-opacity="1" fill-rule="nonzero"/></g><g clip-path="url(#ee1013db78)"><path fill="#1e1e1e" d="M 93.390625 33.769531 L 18.613281 33.769531 C 14.523438 33.769531 11.207031 30.460938 11.207031 26.378906 C 11.207031 22.296875 14.523438 18.984375 18.613281 18.984375 L 93.390625 18.984375 C 97.480469 18.984375 100.796875 22.296875 100.796875 26.378906 C 100.796875 30.460938 97.480469 33.769531 93.390625 33.769531 " fill-opacity="1" fill-rule="nonzero"/></g><g clip-path="url(#a7a05212e9)"><path fill="#1e1e1e" d="M 93.390625 63.34375 L 18.613281 63.34375 C 14.523438 63.34375 11.207031 60.035156 11.207031 55.953125 C 11.207031 51.867188 14.523438 48.558594 18.613281 48.558594 L 93.390625 48.558594 C 97.480469 48.558594 100.796875 51.867188 100.796875 55.953125 C 100.796875 60.035156 97.480469 63.34375 93.390625 63.34375 " fill-opacity="1" fill-rule="nonzero"/></g><g clip-path="url(#a7e49c0627)"><path fill="#1e1e1e" d="M 93.390625 92.917969 L 18.613281 92.917969 C 14.523438 92.917969 11.207031 89.609375 11.207031 85.527344 C 11.207031 81.441406 14.523438 78.132812 18.613281 78.132812 L 93.390625 78.132812 C 97.480469 78.132812 100.796875 81.441406 100.796875 85.527344 C 100.796875 89.609375 97.480469 92.917969 93.390625 92.917969 " fill-opacity="1" fill-rule="nonzero"/></g></svg>