<svg xmlns="http://www.w3.org/2000/svg" xmlns:xlink="http://www.w3.org/1999/xlink" width="250" zoomAndPan="magnify" viewBox="0 0 187.5 52.499999" height="70" preserveAspectRatio="xMidYMid meet" version="1.0"><defs><g/><clipPath id="1041057201"><path d="M 0.636719 0 L 186.367188 0 L 186.367188 52.003906 L 0.636719 52.003906 Z M 0.636719 0 " clip-rule="nonzero"/></clipPath></defs><g clip-path="url(#1041057201)"><path stroke-linecap="butt" transform="matrix(0.742924, 0, 0, 0.742924, 0.215837, 8.544125)" fill="none" stroke-linejoin="miter" d="M 28.444102 0.319178 C 26.708983 0.392789 25.452336 0.603107 24.679419 0.944873 C 23.906502 1.286638 23.464835 1.796658 23.349161 2.48019 C 23.27555 2.895567 23.217712 3.337234 23.170391 3.80519 C 23.133585 4.278405 23.117812 4.835746 23.117812 5.482472 L 23.117812 15.109754 C 24.327137 14.731183 25.704717 14.242195 27.25055 13.64279 C 28.801641 13.032869 30.273864 12.312532 31.667217 11.481778 C 33.065828 10.656282 34.238348 9.704595 35.179519 8.631976 C 36.131205 7.554099 36.60442 6.334258 36.60442 4.967194 C 36.60442 4.026024 36.394102 3.258365 35.978725 2.65896 C 35.568606 2.049039 35.000749 1.575825 34.280412 1.234059 C 33.560074 0.892293 32.697773 0.655686 31.693507 0.529496 C 30.694499 0.387531 29.611364 0.319178 28.444102 0.319178 Z M 34.332991 -2.278243 C 37.508785 -2.278243 39.732892 -1.710386 41.015829 -0.579929 C 42.309281 0.555785 42.95075 2.106877 42.95075 4.068087 C 42.95075 5.314218 42.640531 6.465706 42.014837 7.52781 C 41.3944 8.579397 40.55313 9.562631 39.496285 10.472254 C 38.434182 11.376619 37.219598 12.207373 35.857793 12.964516 C 34.501245 13.721659 33.08686 14.405191 31.60938 15.009854 C 30.142415 15.609258 28.670193 16.145568 27.197971 16.613524 C 25.731006 17.086739 24.369201 17.4916 23.117812 17.833366 L 23.117812 28.196759 C 23.117812 29.032771 23.154617 29.821462 23.228228 30.557573 C 23.312355 31.288426 23.480609 31.929895 23.738248 32.481978 C 24.006403 33.028803 24.384974 33.480986 24.873963 33.838526 C 25.373467 34.196065 26.014935 34.416899 26.808883 34.49051 L 26.808883 35.00053 L 13.211859 35.00053 L 13.211859 34.49051 C 14.042613 34.380093 14.694597 34.143486 15.162553 33.780688 C 15.63051 33.423149 15.998565 32.991998 16.256204 32.481978 C 16.524359 31.9667 16.692613 31.377811 16.766224 30.725827 C 16.850351 30.063327 16.892414 29.369279 16.892414 28.648942 L 16.892414 4.509754 C 16.892414 3.684258 16.839835 2.911341 16.739934 2.201519 C 16.645291 1.481182 16.477037 0.839714 16.229914 0.277115 C 15.988049 -0.290743 15.625252 -0.748183 15.136263 -1.089949 C 14.647275 -1.431715 14.005807 -1.657806 13.211859 -1.768223 L 13.211859 -2.278243 Z M 52.357199 13.295766 C 52.693707 12.465012 53.193211 11.644774 53.850453 10.835052 C 54.512953 10.020072 55.25958 9.304992 56.090334 8.689814 C 56.921088 8.064119 57.804421 7.548841 58.745592 7.154496 C 59.697278 6.760151 60.627933 6.560349 61.542814 6.560349 C 62.252636 6.560349 62.767914 6.586639 63.088648 6.644476 C 63.41464 6.697055 63.688053 6.760151 63.919402 6.833762 L 62.673271 12.507076 C 61.458687 11.713127 60.265136 11.318782 59.092616 11.318782 C 56.94212 11.318782 55.291127 12.196857 54.139639 13.958266 C 52.988151 15.714417 52.409778 18.416997 52.409778 22.081779 L 52.409778 27.807672 C 52.409778 28.859259 52.446583 29.768882 52.520195 30.547057 C 52.604322 31.319974 52.756802 31.982474 52.977635 32.539815 C 53.208984 33.081383 53.55075 33.517791 54.002933 33.838526 C 54.455115 34.15926 55.059778 34.380093 55.811663 34.49051 L 55.811663 35.00053 L 43.239936 35.00053 L 43.239936 34.49051 C 44.670095 34.301224 45.590234 33.680788 46.005611 32.618684 C 46.420988 31.561839 46.626047 30.215807 46.626047 28.596363 L 46.626047 14.210647 C 46.626047 12.62275 46.420988 11.281976 46.005611 10.183068 C 45.590234 9.084159 44.670095 8.463722 43.239936 8.3165 L 43.239936 7.80648 L 51.05323 7.070369 C 51.468607 8.01154 51.778826 8.994774 51.983885 10.020072 C 52.194203 11.029595 52.320393 12.123246 52.357199 13.295766 Z M 79.488153 9.215607 C 77.947577 9.215607 76.612061 9.510052 75.476347 10.098941 C 74.340633 10.682572 73.415236 11.47652 72.694898 12.480786 C 71.974561 13.474536 71.448767 14.63654 71.107001 15.966798 C 70.765236 17.28654 70.591724 18.66412 70.591724 20.099537 C 70.591724 21.529695 70.765236 23.001918 71.107001 24.516204 C 71.448767 26.025231 71.985077 27.397553 72.721188 28.622652 C 73.462557 29.847752 74.414244 30.857275 75.586764 31.651224 C 76.759284 32.445172 78.173669 32.839518 79.835177 32.839518 C 81.233788 32.839518 82.479919 32.524041 83.568312 31.887831 C 84.667221 31.241105 85.592618 30.394577 86.34976 29.34299 C 87.106903 28.280886 87.680018 27.071561 88.079622 25.720271 C 88.473967 24.353207 88.673769 22.933565 88.673769 21.456084 C 88.673769 20.173148 88.531804 18.8166 88.242618 17.375925 C 87.969205 15.940509 87.469701 14.615508 86.749364 13.406183 C 86.029026 12.196857 85.087856 11.197849 83.915336 10.403901 C 82.742816 9.609953 81.265335 9.215607 79.488153 9.215607 Z M 64.134977 21.235251 C 64.134977 18.96908 64.539838 16.918485 65.349561 15.093981 C 66.169799 13.258961 67.289739 11.707869 68.698866 10.445964 C 70.118509 9.173544 71.780017 8.200825 73.678133 7.52781 C 75.586764 6.844278 77.658391 6.502512 79.887756 6.502512 C 82.048768 6.502512 84.046784 6.817988 85.89232 7.443683 C 87.748372 8.064119 89.352042 8.968484 90.70859 10.156778 C 92.070396 11.345072 93.148273 12.82781 93.942221 14.61025 C 94.73617 16.382175 95.130515 18.401223 95.130515 20.667394 C 95.130515 23.012434 94.720396 25.11035 93.889642 26.961144 C 93.058888 28.80668 91.933689 30.368287 90.514046 31.640708 C 89.099661 32.902613 87.432895 33.875331 85.503233 34.558863 C 83.578828 35.231879 81.517716 35.568387 79.319899 35.568387 C 77.174661 35.568387 75.171387 35.242395 73.320593 34.585153 C 71.464541 33.922653 69.855612 32.976224 68.488549 31.751125 C 67.137259 30.51551 66.069898 29.01174 65.296981 27.239815 C 64.518807 25.457374 64.134977 23.459358 64.134977 21.235251 Z M 114.669008 9.215607 C 113.012758 9.299734 111.551052 9.673048 110.283889 10.335548 C 109.021984 10.99279 107.965139 11.855092 107.118611 12.938227 C 106.272083 14.005588 105.625357 15.251719 105.18369 16.671362 C 104.747282 18.091005 104.531706 19.594775 104.531706 21.182672 C 104.531706 23.254299 104.899762 25.020965 105.635873 26.477414 C 106.377242 27.928605 107.360476 29.106382 108.585575 30.021263 C 109.810675 30.925629 111.19877 31.582871 112.749861 31.998248 C 114.295695 32.413625 115.867818 32.618684 117.450457 32.618684 C 118.402144 32.618684 119.422183 32.487236 120.510576 32.219081 L 120.510576 14.941501 C 120.510576 14.037135 120.436965 13.216897 120.289743 12.480786 C 120.142521 11.744675 119.842818 11.129496 119.401152 10.640508 C 118.970001 10.141004 118.375854 9.772949 117.618711 9.531083 C 116.872084 9.28396 115.88885 9.178802 114.669008 9.215607 Z M 126.289049 -3.760981 L 126.289049 28.648942 C 126.289049 29.516502 126.33637 30.294676 126.431013 30.97295 C 126.530914 31.656482 126.699168 32.255887 126.941033 32.771164 C 127.188156 33.281184 127.529922 33.686045 127.966331 33.991006 C 128.397482 34.28545 128.975855 34.453704 129.696192 34.49051 L 129.696192 35.00053 L 115.236866 35.00053 C 112.06633 35.00053 109.432103 34.674538 107.339444 34.017295 C 105.246786 33.354795 103.537956 32.303208 102.207698 30.862533 C 100.998373 29.616402 100.06246 28.138922 99.39996 26.424835 C 98.742718 24.700231 98.416726 22.912533 98.416726 21.056481 C 98.416726 18.63783 98.816329 16.518882 99.605019 14.694377 C 100.398968 12.859358 101.503134 11.334556 102.912262 10.130488 C 104.331905 8.921163 106.014444 8.016798 107.959881 7.417393 C 109.910576 6.807472 112.050556 6.502512 114.395596 6.502512 C 114.66375 6.502512 114.952937 6.502512 115.268413 6.502512 C 115.589147 6.502512 115.983493 6.523544 116.456707 6.560349 C 116.935179 6.597155 117.49252 6.63396 118.128731 6.670766 C 118.775457 6.707571 119.569406 6.760151 120.510576 6.833762 L 120.510576 4.068087 C 120.510576 2.106877 120.247679 0.64517 119.721886 -0.317032 C 119.196092 -1.284493 118.328532 -1.768223 117.119207 -1.768223 L 117.119207 -2.278243 Z M 141.1953 7.070369 L 141.1953 24.516204 C 141.1953 27.160946 141.505518 29.006482 142.120697 30.047553 C 142.751649 31.078109 143.81901 31.598645 145.333296 31.598645 C 145.55413 31.598645 145.895895 31.567097 146.36911 31.514518 C 146.847582 31.45668 147.38915 31.319974 147.988554 31.09914 C 148.593217 30.867791 149.229427 30.536541 149.881412 30.10539 C 150.543912 29.668982 151.201154 29.074835 151.84788 28.317692 C 152.300063 27.781382 152.683892 27.234557 153.009884 26.671958 C 153.330618 26.098843 153.582999 25.478406 153.767027 24.80539 C 153.961571 24.121858 154.103535 23.359457 154.198178 22.507672 C 154.292821 21.661144 154.334884 20.688426 154.334884 19.589517 L 154.334884 14.15281 C 154.334884 13.358862 154.298079 12.612234 154.224467 11.912929 C 154.150856 11.213623 153.993118 10.608961 153.740737 10.098941 C 153.493614 9.594179 153.141332 9.178802 152.68915 8.858068 C 152.236967 8.532075 151.653336 8.353306 150.932999 8.3165 L 150.932999 7.80648 L 160.118615 7.070369 L 160.118615 28.648942 C 160.118615 30.578605 160.370996 32.024537 160.881016 32.991998 C 161.385777 33.9542 162.305916 34.453704 163.630916 34.49051 L 163.630916 35.00053 L 155.470598 35.00053 C 154.823872 33.339022 154.445301 31.414617 154.334884 29.216799 C 153.467325 30.010748 152.562959 30.79418 151.611273 31.567097 C 150.670102 32.345272 149.686868 33.028803 148.666828 33.617692 C 147.652046 34.196065 146.605717 34.66928 145.522582 35.026819 C 144.444705 35.389617 143.345796 35.568387 142.220598 35.568387 C 139.912363 35.568387 138.203534 34.879597 137.088851 33.507276 C 135.968911 32.124438 135.411569 30.089617 135.411569 27.408069 L 135.411569 14.15281 C 135.411569 13.358862 135.374764 12.62275 135.301153 11.939219 C 135.227542 11.255687 135.064545 10.66154 134.817422 10.156778 C 134.570299 9.646758 134.218018 9.231381 133.765835 8.910647 C 133.313653 8.589913 132.730022 8.390111 132.009684 8.3165 L 132.009684 7.80648 Z M 166.407107 20.099537 C 166.407107 18.138326 166.722583 16.324338 167.358794 14.668088 C 168.00552 12.996064 168.915143 11.555389 170.082405 10.351322 C 171.254925 9.141996 172.653536 8.200825 174.278239 7.52781 C 175.897683 6.844278 177.69064 6.502512 179.657108 6.502512 C 180.267029 6.502512 180.950561 6.534059 181.702446 6.586639 C 182.459588 6.644476 183.1957 6.718087 183.905521 6.807472 C 184.6206 6.902115 185.283101 6.980984 185.882505 7.044079 C 186.492426 7.096659 186.96564 7.128206 187.307406 7.128206 C 187.843716 7.128206 188.264351 7.091401 188.579827 7.01779 C 188.900561 6.933663 189.268617 6.760151 189.683994 6.502512 L 191.329728 15.220171 L 190.998478 15.398941 C 190.314946 14.15281 189.589351 13.127512 188.816434 12.312532 C 188.038259 11.492294 187.244311 10.856084 186.434589 10.403901 C 185.624866 9.951718 184.809886 9.6415 184.000164 9.478504 C 183.190442 9.304992 182.422783 9.215607 181.702446 9.215607 C 180.193418 9.215607 178.868418 9.546857 177.732703 10.209357 C 176.602247 10.877115 175.645302 11.739417 174.872386 12.796262 C 174.094211 13.84785 173.51058 15.046659 173.116235 16.392691 C 172.716631 17.733465 172.51683 19.095271 172.51683 20.488624 C 172.51683 22.570767 172.895401 24.390013 173.652544 25.941104 C 174.409687 27.486938 175.3456 28.775132 176.460282 29.80043 C 177.574965 30.815212 178.773775 31.572355 180.056711 32.082375 C 181.339648 32.587137 182.527942 32.839518 183.62685 32.839518 C 184.531216 32.839518 185.446097 32.723843 186.366236 32.481978 C 187.29689 32.234855 188.206513 31.872057 189.089847 31.404101 C 189.983696 30.930887 190.803934 30.331482 191.555819 29.590113 C 192.307704 28.854001 192.95443 27.9917 193.49074 27.003208 L 193.879827 27.239815 L 190.998478 35.400133 C 190.877545 35.316006 190.714549 35.247653 190.504232 35.195073 C 190.299172 35.137236 190.067823 35.110946 189.810184 35.110946 C 189.542029 35.110946 189.221295 35.12672 188.842724 35.163526 C 188.464152 35.200331 187.780621 35.263426 186.792128 35.347553 C 186.155918 35.421165 185.524966 35.473744 184.899271 35.51055 C 184.284093 35.547355 183.763557 35.568387 183.34818 35.568387 C 181.118815 35.568387 178.984092 35.231879 176.944013 34.558863 C 174.909191 33.875331 173.105719 32.876323 171.538854 31.556581 C 169.96673 30.226323 168.720599 28.60162 167.789945 26.671958 C 166.864548 24.747553 166.407107 22.554993 166.407107 20.099537 Z M 203.112764 -2.735683 L 203.112764 7.580389 L 207.929035 7.580389 C 208.428539 7.580389 208.991138 7.538325 209.627348 7.443683 C 210.274074 7.343782 210.826158 7.065111 211.27834 6.612929 L 209.685186 10.640508 C 209.611574 10.566897 209.432805 10.445964 209.143618 10.282968 C 208.870205 10.104199 208.354927 10.020072 207.597785 10.020072 L 203.112764 10.020072 L 203.112764 26.840212 C 203.112764 28.875033 203.422983 30.294676 204.043419 31.083367 C 204.669114 31.877315 205.699669 32.276918 207.140344 32.276918 C 208.276058 32.276918 209.275066 32.050827 210.142626 31.598645 C 211.010186 31.146462 211.804134 30.504994 212.519213 29.67424 L 212.866237 29.842494 L 210.931317 34.49051 C 209.842924 34.827018 208.701951 35.089915 207.513658 35.2792 C 206.325364 35.468486 205.126554 35.568387 203.917229 35.568387 C 202.928737 35.568387 202.029629 35.442196 201.219907 35.195073 C 200.410185 34.953208 199.716137 34.532573 199.143022 33.933168 C 198.580423 33.328506 198.138756 32.508268 197.818022 31.488228 C 197.49203 30.46293 197.334292 29.179994 197.334292 27.639418 L 197.334292 10.020072 L 193.595899 10.020072 L 193.595899 9.504794 C 195.220601 9.052611 196.419411 8.148246 197.192328 6.796956 C 197.970502 5.429893 198.354332 3.973444 198.354332 2.422353 C 198.354332 2.006976 198.328042 1.575825 198.275463 1.123642 C 198.217625 0.660944 198.133498 0.129892 198.023082 -0.469512 Z M 214.454134 13.97404 C 214.454134 12.617492 214.780126 11.460746 215.432111 10.503802 C 216.099868 9.531083 216.946396 8.758167 217.98221 8.179794 C 219.023281 7.585647 220.164254 7.165012 221.410385 6.907373 C 222.667032 6.639218 223.876357 6.502512 225.048877 6.502512 C 226.184591 6.502512 227.230921 6.570865 228.187865 6.697055 C 229.150068 6.828504 230.012369 6.980984 230.790544 7.154496 C 231.563461 7.32275 232.231219 7.469972 232.793818 7.611937 C 233.366933 7.738127 233.824374 7.80648 234.16614 7.80648 C 234.655128 7.80648 235.10731 7.654 235.522687 7.34904 L 235.92229 16.129794 L 235.522687 16.187632 C 235.333402 15.088723 234.912767 14.105489 234.245009 13.243187 C 233.593024 12.375627 232.809592 11.650032 231.894711 11.066401 C 230.990346 10.477512 230.001854 10.020072 228.923977 9.699337 C 227.840842 9.378603 226.778738 9.215607 225.727151 9.215607 C 225.154036 9.215607 224.544115 9.273445 223.902647 9.394377 C 223.266436 9.504794 222.667032 9.69408 222.114948 9.962234 C 221.573381 10.219873 221.121198 10.582671 220.758401 11.040111 C 220.400861 11.492294 220.222091 12.075925 220.222091 12.785746 C 220.222091 13.46402 220.427151 14.031877 220.842528 14.48406 C 221.26842 14.936243 221.836278 15.341104 222.546099 15.703901 C 223.266436 16.061441 224.086675 16.387433 225.006814 16.671362 C 225.937468 16.95529 226.894413 17.228703 227.872389 17.486342 C 229.160584 17.864913 230.427746 18.264517 231.673877 18.674636 C 232.920009 19.090013 234.024175 19.621064 234.98112 20.267791 C 235.94858 20.914517 236.721497 21.687434 237.305128 22.591799 C 237.894017 23.496164 238.188461 24.610846 238.188461 25.941104 C 238.188461 27.560549 237.820406 28.980192 237.084295 30.184259 C 236.342925 31.393585 235.391239 32.392593 234.218719 33.186541 C 233.046199 33.98049 231.736973 34.574637 230.275266 34.97424 C 228.829334 35.368585 227.388659 35.568387 225.947984 35.568387 C 224.323282 35.568387 222.782706 35.426423 221.326258 35.137236 C 219.880325 34.863823 218.660484 34.606184 217.67725 34.380093 C 216.431119 34.038327 215.63717 33.864815 215.295404 33.864815 C 214.953638 33.864815 214.680226 33.943684 214.46465 34.101422 C 214.264849 34.248645 214.070305 34.432672 213.886277 34.653506 L 213.428837 23.559259 L 213.886277 23.433069 C 214.070305 24.910549 214.496198 26.225033 215.158698 27.376521 C 215.821198 28.533267 216.651952 29.511244 217.645702 30.326224 C 218.655226 31.135946 219.785682 31.756383 221.052845 32.192791 C 222.31475 32.623942 223.645008 32.839518 225.048877 32.839518 C 225.842826 32.839518 226.67358 32.729101 227.541139 32.508268 C 228.403441 32.276918 229.197389 31.945668 229.917727 31.514518 C 230.638064 31.078109 231.232211 30.536541 231.700167 29.879299 C 232.173381 29.216799 232.409989 28.44914 232.409989 27.571065 C 232.409989 26.861243 232.199671 26.251323 231.784294 25.746561 C 231.368917 25.231283 230.80106 24.784358 230.085981 24.405787 C 229.365643 24.027215 228.545405 23.695965 227.620008 23.422553 C 226.699869 23.133366 225.706119 22.838922 224.649274 22.533961 C 223.403143 22.197453 222.178044 21.808366 220.968718 21.371957 C 219.759393 20.940806 218.671 20.415013 217.703539 19.799834 C 216.746595 19.168882 215.957904 18.385449 215.353241 17.444278 C 214.753837 16.49785 214.454134 15.341104 214.454134 13.97404 Z M 214.454134 13.97404 " stroke="#eeebe9" stroke-width="4.249672" stroke-opacity="1" stroke-miterlimit="4"/></g><g fill="#320003" fill-opacity="1"><g transform="translate(8.469263, 34.546482)"><g><path d="M 12.875 -25.765625 C 11.582031 -25.703125 10.648438 -25.546875 10.078125 -25.296875 C 9.503906 -25.046875 9.175781 -24.664062 9.09375 -24.15625 C 9.039062 -23.851562 9 -23.523438 8.96875 -23.171875 C 8.9375 -22.816406 8.921875 -22.40625 8.921875 -21.9375 L 8.921875 -14.78125 C 9.816406 -15.0625 10.835938 -15.425781 11.984375 -15.875 C 13.140625 -16.320312 14.238281 -16.851562 15.28125 -17.46875 C 16.320312 -18.082031 17.191406 -18.789062 17.890625 -19.59375 C 18.585938 -20.394531 18.9375 -21.300781 18.9375 -22.3125 C 18.9375 -23.007812 18.78125 -23.582031 18.46875 -24.03125 C 18.164062 -24.476562 17.75 -24.828125 17.21875 -25.078125 C 16.6875 -25.335938 16.046875 -25.515625 15.296875 -25.609375 C 14.554688 -25.710938 13.75 -25.765625 12.875 -25.765625 Z M 17.265625 -27.703125 C 19.617188 -27.703125 21.269531 -27.28125 22.21875 -26.4375 C 23.175781 -25.59375 23.65625 -24.441406 23.65625 -22.984375 C 23.65625 -22.054688 23.421875 -21.195312 22.953125 -20.40625 C 22.492188 -19.625 21.867188 -18.894531 21.078125 -18.21875 C 20.296875 -17.550781 19.398438 -16.9375 18.390625 -16.375 C 17.378906 -15.8125 16.328125 -15.304688 15.234375 -14.859375 C 14.140625 -14.410156 13.046875 -14.007812 11.953125 -13.65625 C 10.859375 -13.3125 9.847656 -13.007812 8.921875 -12.75 L 8.921875 -5.046875 C 8.921875 -4.429688 8.945312 -3.847656 9 -3.296875 C 9.0625 -2.753906 9.191406 -2.28125 9.390625 -1.875 C 9.585938 -1.46875 9.867188 -1.128906 10.234375 -0.859375 C 10.597656 -0.597656 11.070312 -0.4375 11.65625 -0.375 L 11.65625 0 L 1.5625 0 L 1.5625 -0.375 C 2.175781 -0.457031 2.65625 -0.632812 3 -0.90625 C 3.351562 -1.175781 3.628906 -1.5 3.828125 -1.875 C 4.023438 -2.25 4.148438 -2.679688 4.203125 -3.171875 C 4.265625 -3.671875 4.296875 -4.1875 4.296875 -4.71875 L 4.296875 -22.640625 C 4.296875 -23.265625 4.257812 -23.84375 4.1875 -24.375 C 4.113281 -24.90625 3.984375 -25.378906 3.796875 -25.796875 C 3.617188 -26.222656 3.347656 -26.5625 2.984375 -26.8125 C 2.617188 -27.0625 2.144531 -27.226562 1.5625 -27.3125 L 1.5625 -27.703125 Z M 17.265625 -27.703125 "/></g></g></g><g fill="#320003" fill-opacity="1"><g transform="translate(31.198536, 34.546482)"><g><path d="M 7.90625 -16.125 C 8.164062 -16.738281 8.539062 -17.347656 9.03125 -17.953125 C 9.519531 -18.554688 10.070312 -19.085938 10.6875 -19.546875 C 11.3125 -20.015625 11.972656 -20.394531 12.671875 -20.6875 C 13.367188 -20.976562 14.054688 -21.125 14.734375 -21.125 C 15.265625 -21.125 15.648438 -21.101562 15.890625 -21.0625 C 16.128906 -21.019531 16.332031 -20.972656 16.5 -20.921875 L 15.578125 -16.71875 C 14.679688 -17.300781 13.796875 -17.59375 12.921875 -17.59375 C 11.328125 -17.59375 10.097656 -16.941406 9.234375 -15.640625 C 8.378906 -14.335938 7.953125 -12.320312 7.953125 -9.59375 L 7.953125 -5.34375 C 7.953125 -4.5625 7.976562 -3.878906 8.03125 -3.296875 C 8.09375 -2.722656 8.207031 -2.234375 8.375 -1.828125 C 8.539062 -1.421875 8.789062 -1.097656 9.125 -0.859375 C 9.46875 -0.617188 9.921875 -0.457031 10.484375 -0.375 L 10.484375 0 L 1.140625 0 L 1.140625 -0.375 C 2.203125 -0.519531 2.882812 -0.984375 3.1875 -1.765625 C 3.5 -2.554688 3.65625 -3.550781 3.65625 -4.75 L 3.65625 -15.453125 C 3.65625 -16.628906 3.5 -17.625 3.1875 -18.4375 C 2.882812 -19.25 2.203125 -19.710938 1.140625 -19.828125 L 1.140625 -20.203125 L 6.953125 -20.75 C 7.253906 -20.050781 7.484375 -19.320312 7.640625 -18.5625 C 7.796875 -17.800781 7.882812 -16.988281 7.90625 -16.125 Z M 7.90625 -16.125 "/></g></g></g><g fill="#320003" fill-opacity="1"><g transform="translate(46.351352, 34.546482)"><g><path d="M 12.921875 -19.15625 C 11.773438 -19.15625 10.78125 -18.9375 9.9375 -18.5 C 9.09375 -18.0625 8.40625 -17.46875 7.875 -16.71875 C 7.34375 -15.976562 6.945312 -15.117188 6.6875 -14.140625 C 6.4375 -13.160156 6.3125 -12.140625 6.3125 -11.078125 C 6.3125 -10.003906 6.4375 -8.90625 6.6875 -7.78125 C 6.945312 -6.664062 7.347656 -5.648438 7.890625 -4.734375 C 8.441406 -3.828125 9.148438 -3.078125 10.015625 -2.484375 C 10.890625 -1.890625 11.941406 -1.59375 13.171875 -1.59375 C 14.210938 -1.59375 15.140625 -1.832031 15.953125 -2.3125 C 16.765625 -2.789062 17.453125 -3.421875 18.015625 -4.203125 C 18.578125 -4.992188 19.003906 -5.894531 19.296875 -6.90625 C 19.585938 -7.914062 19.734375 -8.96875 19.734375 -10.0625 C 19.734375 -11.007812 19.628906 -12.015625 19.421875 -13.078125 C 19.210938 -14.148438 18.84375 -15.132812 18.3125 -16.03125 C 17.78125 -16.9375 17.078125 -17.679688 16.203125 -18.265625 C 15.335938 -18.859375 14.242188 -19.15625 12.921875 -19.15625 Z M 1.515625 -10.234375 C 1.515625 -11.910156 1.816406 -13.429688 2.421875 -14.796875 C 3.023438 -16.160156 3.851562 -17.3125 4.90625 -18.25 C 5.957031 -19.1875 7.191406 -19.90625 8.609375 -20.40625 C 10.023438 -20.914062 11.5625 -21.171875 13.21875 -21.171875 C 14.8125 -21.171875 16.296875 -20.9375 17.671875 -20.46875 C 19.046875 -20.007812 20.238281 -19.335938 21.25 -18.453125 C 22.257812 -17.566406 23.0625 -16.460938 23.65625 -15.140625 C 24.25 -13.828125 24.546875 -12.332031 24.546875 -10.65625 C 24.546875 -8.914062 24.234375 -7.359375 23.609375 -5.984375 C 22.992188 -4.609375 22.160156 -3.445312 21.109375 -2.5 C 20.054688 -1.5625 18.8125 -0.835938 17.375 -0.328125 C 15.945312 0.171875 14.421875 0.421875 12.796875 0.421875 C 11.191406 0.421875 9.703125 0.175781 8.328125 -0.3125 C 6.953125 -0.800781 5.757812 -1.5 4.75 -2.40625 C 3.738281 -3.320312 2.945312 -4.441406 2.375 -5.765625 C 1.800781 -7.085938 1.515625 -8.578125 1.515625 -10.234375 Z M 1.515625 -10.234375 "/></g></g></g><g fill="#320003" fill-opacity="1"><g transform="translate(71.606099, 34.546482)"><g><path d="M 13.8125 -19.15625 C 12.570312 -19.09375 11.484375 -18.816406 10.546875 -18.328125 C 9.609375 -17.835938 8.820312 -17.191406 8.1875 -16.390625 C 7.550781 -15.597656 7.070312 -14.671875 6.75 -13.609375 C 6.425781 -12.554688 6.265625 -11.441406 6.265625 -10.265625 C 6.265625 -8.722656 6.535156 -7.410156 7.078125 -6.328125 C 7.628906 -5.253906 8.363281 -4.378906 9.28125 -3.703125 C 10.195312 -3.023438 11.226562 -2.53125 12.375 -2.21875 C 13.519531 -1.914062 14.6875 -1.765625 15.875 -1.765625 C 16.570312 -1.765625 17.328125 -1.863281 18.140625 -2.0625 L 18.140625 -14.90625 C 18.140625 -15.570312 18.082031 -16.175781 17.96875 -16.71875 C 17.863281 -17.269531 17.648438 -17.726562 17.328125 -18.09375 C 17.003906 -18.457031 16.5625 -18.726562 16 -18.90625 C 15.4375 -19.09375 14.707031 -19.175781 13.8125 -19.15625 Z M 22.4375 -28.796875 L 22.4375 -4.71875 C 22.4375 -4.070312 22.46875 -3.492188 22.53125 -2.984375 C 22.601562 -2.484375 22.726562 -2.039062 22.90625 -1.65625 C 23.09375 -1.28125 23.347656 -0.976562 23.671875 -0.75 C 23.992188 -0.53125 24.425781 -0.40625 24.96875 -0.375 L 24.96875 0 L 14.234375 0 C 11.867188 0 9.90625 -0.242188 8.34375 -0.734375 C 6.789062 -1.222656 5.523438 -2.003906 4.546875 -3.078125 C 3.648438 -4.003906 2.953125 -5.101562 2.453125 -6.375 C 1.960938 -7.65625 1.71875 -8.984375 1.71875 -10.359375 C 1.71875 -12.148438 2.015625 -13.722656 2.609375 -15.078125 C 3.203125 -16.441406 4.023438 -17.570312 5.078125 -18.46875 C 6.128906 -19.375 7.375 -20.050781 8.8125 -20.5 C 10.257812 -20.945312 11.851562 -21.171875 13.59375 -21.171875 C 13.789062 -21.171875 14.007812 -21.171875 14.25 -21.171875 C 14.488281 -21.171875 14.78125 -21.15625 15.125 -21.125 C 15.476562 -21.101562 15.894531 -21.078125 16.375 -21.046875 C 16.851562 -21.015625 17.441406 -20.972656 18.140625 -20.921875 L 18.140625 -22.984375 C 18.140625 -24.441406 17.941406 -25.523438 17.546875 -26.234375 C 17.160156 -26.953125 16.515625 -27.3125 15.609375 -27.3125 L 15.609375 -27.703125 Z M 22.4375 -28.796875 "/></g></g></g><g fill="#320003" fill-opacity="1"><g transform="translate(96.860844, 34.546482)"><g><path d="M 8.25 -20.75 L 8.25 -7.78125 C 8.25 -5.820312 8.476562 -4.457031 8.9375 -3.6875 C 9.40625 -2.914062 10.203125 -2.53125 11.328125 -2.53125 C 11.492188 -2.53125 11.75 -2.550781 12.09375 -2.59375 C 12.445312 -2.632812 12.847656 -2.738281 13.296875 -2.90625 C 13.742188 -3.070312 14.210938 -3.316406 14.703125 -3.640625 C 15.203125 -3.960938 15.6875 -4.40625 16.15625 -4.96875 C 16.5 -5.363281 16.789062 -5.769531 17.03125 -6.1875 C 17.269531 -6.601562 17.457031 -7.0625 17.59375 -7.5625 C 17.738281 -8.070312 17.84375 -8.644531 17.90625 -9.28125 C 17.976562 -9.914062 18.015625 -10.640625 18.015625 -11.453125 L 18.015625 -15.484375 C 18.015625 -16.078125 17.984375 -16.632812 17.921875 -17.15625 C 17.867188 -17.675781 17.75 -18.125 17.5625 -18.5 C 17.382812 -18.875 17.128906 -19.179688 16.796875 -19.421875 C 16.460938 -19.660156 16.023438 -19.796875 15.484375 -19.828125 L 15.484375 -20.203125 L 22.3125 -20.75 L 22.3125 -4.71875 C 22.3125 -3.28125 22.5 -2.203125 22.875 -1.484375 C 23.257812 -0.773438 23.941406 -0.40625 24.921875 -0.375 L 24.921875 0 L 18.859375 0 C 18.378906 -1.238281 18.097656 -2.671875 18.015625 -4.296875 C 17.367188 -3.703125 16.691406 -3.117188 15.984375 -2.546875 C 15.285156 -1.972656 14.554688 -1.46875 13.796875 -1.03125 C 13.046875 -0.59375 12.269531 -0.242188 11.46875 0.015625 C 10.664062 0.285156 9.847656 0.421875 9.015625 0.421875 C 7.296875 0.421875 6.019531 -0.0859375 5.1875 -1.109375 C 4.363281 -2.140625 3.953125 -3.648438 3.953125 -5.640625 L 3.953125 -15.484375 C 3.953125 -16.078125 3.921875 -16.625 3.859375 -17.125 C 3.804688 -17.632812 3.6875 -18.078125 3.5 -18.453125 C 3.320312 -18.835938 3.066406 -19.144531 2.734375 -19.375 C 2.398438 -19.613281 1.96875 -19.765625 1.4375 -19.828125 L 1.4375 -20.203125 Z M 8.25 -20.75 "/></g></g></g><g fill="#320003" fill-opacity="1"><g transform="translate(122.115588, 34.546482)"><g><path d="M 1.71875 -11.078125 C 1.71875 -12.535156 1.957031 -13.878906 2.4375 -15.109375 C 2.914062 -16.347656 3.585938 -17.414062 4.453125 -18.3125 C 5.328125 -19.207031 6.367188 -19.90625 7.578125 -20.40625 C 8.785156 -20.914062 10.117188 -21.171875 11.578125 -21.171875 C 12.023438 -21.171875 12.53125 -21.148438 13.09375 -21.109375 C 13.65625 -21.066406 14.203125 -21.007812 14.734375 -20.9375 C 15.265625 -20.875 15.753906 -20.816406 16.203125 -20.765625 C 16.648438 -20.722656 17.003906 -20.703125 17.265625 -20.703125 C 17.648438 -20.703125 17.960938 -20.726562 18.203125 -20.78125 C 18.441406 -20.84375 18.71875 -20.972656 19.03125 -21.171875 L 20.25 -14.6875 L 20 -14.5625 C 19.488281 -15.488281 18.945312 -16.253906 18.375 -16.859375 C 17.800781 -17.460938 17.210938 -17.929688 16.609375 -18.265625 C 16.003906 -18.609375 15.398438 -18.84375 14.796875 -18.96875 C 14.191406 -19.09375 13.625 -19.15625 13.09375 -19.15625 C 11.96875 -19.15625 10.984375 -18.90625 10.140625 -18.40625 C 9.296875 -17.914062 8.585938 -17.28125 8.015625 -16.5 C 7.441406 -15.71875 7.003906 -14.828125 6.703125 -13.828125 C 6.410156 -12.828125 6.265625 -11.8125 6.265625 -10.78125 C 6.265625 -9.226562 6.546875 -7.878906 7.109375 -6.734375 C 7.671875 -5.585938 8.363281 -4.632812 9.1875 -3.875 C 10.019531 -3.113281 10.910156 -2.539062 11.859375 -2.15625 C 12.816406 -1.78125 13.703125 -1.59375 14.515625 -1.59375 C 15.191406 -1.59375 15.875 -1.679688 16.5625 -1.859375 C 17.25 -2.046875 17.921875 -2.316406 18.578125 -2.671875 C 19.242188 -3.023438 19.851562 -3.472656 20.40625 -4.015625 C 20.96875 -4.566406 21.445312 -5.207031 21.84375 -5.9375 L 22.140625 -5.765625 L 20 0.296875 C 19.914062 0.234375 19.796875 0.179688 19.640625 0.140625 C 19.484375 0.0976562 19.304688 0.078125 19.109375 0.078125 C 18.910156 0.078125 18.671875 0.09375 18.390625 0.125 C 18.109375 0.15625 17.601562 0.195312 16.875 0.25 C 16.394531 0.3125 15.925781 0.351562 15.46875 0.375 C 15.007812 0.40625 14.625 0.421875 14.3125 0.421875 C 12.65625 0.421875 11.066406 0.171875 9.546875 -0.328125 C 8.035156 -0.835938 6.695312 -1.582031 5.53125 -2.5625 C 4.363281 -3.550781 3.4375 -4.757812 2.75 -6.1875 C 2.0625 -7.613281 1.71875 -9.242188 1.71875 -11.078125 Z M 1.71875 -11.078125 "/></g></g></g><g fill="#320003" fill-opacity="1"><g transform="translate(144.003032, 34.546482)"><g><path d="M 7.109375 -28.03125 L 7.109375 -20.375 L 10.6875 -20.375 C 11.050781 -20.375 11.472656 -20.40625 11.953125 -20.46875 C 12.429688 -20.539062 12.835938 -20.75 13.171875 -21.09375 L 12 -18.09375 C 11.9375 -18.15625 11.800781 -18.25 11.59375 -18.375 C 11.382812 -18.5 11 -18.5625 10.4375 -18.5625 L 7.109375 -18.5625 L 7.109375 -6.0625 C 7.109375 -4.539062 7.335938 -3.484375 7.796875 -2.890625 C 8.265625 -2.304688 9.035156 -2.015625 10.109375 -2.015625 C 10.941406 -2.015625 11.679688 -2.179688 12.328125 -2.515625 C 12.972656 -2.859375 13.5625 -3.335938 14.09375 -3.953125 L 14.359375 -3.828125 L 12.921875 -0.375 C 12.109375 -0.125 11.257812 0.0664062 10.375 0.203125 C 9.488281 0.347656 8.597656 0.421875 7.703125 0.421875 C 6.972656 0.421875 6.304688 0.328125 5.703125 0.140625 C 5.097656 -0.0351562 4.582031 -0.347656 4.15625 -0.796875 C 3.738281 -1.242188 3.410156 -1.847656 3.171875 -2.609375 C 2.929688 -3.367188 2.8125 -4.320312 2.8125 -5.46875 L 2.8125 -18.5625 L 0.046875 -18.5625 L 0.046875 -18.9375 C 1.253906 -19.28125 2.144531 -19.957031 2.71875 -20.96875 C 3.289062 -21.976562 3.578125 -23.054688 3.578125 -24.203125 C 3.578125 -24.515625 3.554688 -24.835938 3.515625 -25.171875 C 3.472656 -25.503906 3.410156 -25.894531 3.328125 -26.34375 Z M 7.109375 -28.03125 "/></g></g></g><g fill="#320003" fill-opacity="1"><g transform="translate(157.4722, 34.546482)"><g><path d="M 2.0625 -15.609375 C 2.0625 -16.617188 2.304688 -17.484375 2.796875 -18.203125 C 3.285156 -18.921875 3.914062 -19.492188 4.6875 -19.921875 C 5.457031 -20.359375 6.304688 -20.675781 7.234375 -20.875 C 8.160156 -21.070312 9.0625 -21.171875 9.9375 -21.171875 C 10.78125 -21.171875 11.554688 -21.117188 12.265625 -21.015625 C 12.984375 -20.921875 13.628906 -20.8125 14.203125 -20.6875 C 14.773438 -20.5625 15.269531 -20.445312 15.6875 -20.34375 C 16.113281 -20.25 16.457031 -20.203125 16.71875 -20.203125 C 17.082031 -20.203125 17.414062 -20.316406 17.71875 -20.546875 L 18.015625 -14.015625 L 17.71875 -13.96875 C 17.582031 -14.789062 17.265625 -15.519531 16.765625 -16.15625 C 16.273438 -16.800781 15.691406 -17.34375 15.015625 -17.78125 C 14.347656 -18.21875 13.613281 -18.554688 12.8125 -18.796875 C 12.019531 -19.035156 11.226562 -19.15625 10.4375 -19.15625 C 10.019531 -19.15625 9.570312 -19.113281 9.09375 -19.03125 C 8.613281 -18.945312 8.171875 -18.804688 7.765625 -18.609375 C 7.359375 -18.410156 7.019531 -18.140625 6.75 -17.796875 C 6.488281 -17.460938 6.359375 -17.03125 6.359375 -16.5 C 6.359375 -16 6.507812 -15.578125 6.8125 -15.234375 C 7.125 -14.898438 7.546875 -14.597656 8.078125 -14.328125 C 8.609375 -14.066406 9.21875 -13.828125 9.90625 -13.609375 C 10.59375 -13.398438 11.300781 -13.195312 12.03125 -13 C 12.988281 -12.726562 13.929688 -12.4375 14.859375 -12.125 C 15.785156 -11.8125 16.601562 -11.414062 17.3125 -10.9375 C 18.03125 -10.46875 18.609375 -9.894531 19.046875 -9.21875 C 19.484375 -8.539062 19.703125 -7.710938 19.703125 -6.734375 C 19.703125 -5.523438 19.425781 -4.472656 18.875 -3.578125 C 18.332031 -2.679688 17.625 -1.9375 16.75 -1.34375 C 15.882812 -0.757812 14.910156 -0.316406 13.828125 -0.015625 C 12.742188 0.273438 11.671875 0.421875 10.609375 0.421875 C 9.398438 0.421875 8.253906 0.316406 7.171875 0.109375 C 6.097656 -0.0976562 5.195312 -0.289062 4.46875 -0.46875 C 3.539062 -0.71875 2.945312 -0.84375 2.6875 -0.84375 C 2.4375 -0.84375 2.234375 -0.785156 2.078125 -0.671875 C 1.929688 -0.554688 1.785156 -0.414062 1.640625 -0.25 L 1.3125 -8.5 L 1.640625 -8.59375 C 1.785156 -7.5 2.101562 -6.519531 2.59375 -5.65625 C 3.082031 -4.800781 3.695312 -4.070312 4.4375 -3.46875 C 5.1875 -2.863281 6.03125 -2.398438 6.96875 -2.078125 C 7.90625 -1.753906 8.894531 -1.59375 9.9375 -1.59375 C 10.519531 -1.59375 11.132812 -1.675781 11.78125 -1.84375 C 12.425781 -2.019531 13.015625 -2.269531 13.546875 -2.59375 C 14.085938 -2.914062 14.53125 -3.320312 14.875 -3.8125 C 15.226562 -4.300781 15.40625 -4.867188 15.40625 -5.515625 C 15.40625 -6.046875 15.25 -6.5 14.9375 -6.875 C 14.632812 -7.257812 14.210938 -7.59375 13.671875 -7.875 C 13.140625 -8.15625 12.53125 -8.398438 11.84375 -8.609375 C 11.15625 -8.816406 10.421875 -9.035156 9.640625 -9.265625 C 8.710938 -9.515625 7.800781 -9.800781 6.90625 -10.125 C 6.007812 -10.445312 5.203125 -10.835938 4.484375 -11.296875 C 3.765625 -11.765625 3.179688 -12.347656 2.734375 -13.046875 C 2.285156 -13.742188 2.0625 -14.597656 2.0625 -15.609375 Z M 2.0625 -15.609375 "/></g></g></g></svg>