<svg xmlns="http://www.w3.org/2000/svg" xmlns:xlink="http://www.w3.org/1999/xlink" width="250" zoomAndPan="magnify" viewBox="0 0 187.5 52.499999" height="70" preserveAspectRatio="xMidYMid meet" version="1.0"><defs><g/></defs><g fill="#eeebe9" fill-opacity="1"><g transform="translate(8.469263, 34.546482)"><g><path d="M 12.875 -25.765625 C 11.582031 -25.703125 10.648438 -25.546875 10.078125 -25.296875 C 9.503906 -25.046875 9.175781 -24.664062 9.09375 -24.15625 C 9.039062 -23.851562 9 -23.523438 8.96875 -23.171875 C 8.9375 -22.816406 8.921875 -22.40625 8.921875 -21.9375 L 8.921875 -14.78125 C 9.816406 -15.0625 10.835938 -15.425781 11.984375 -15.875 C 13.140625 -16.320312 14.238281 -16.851562 15.28125 -17.46875 C 16.320312 -18.082031 17.191406 -18.789062 17.890625 -19.59375 C 18.585938 -20.394531 18.9375 -21.300781 18.9375 -22.3125 C 18.9375 -23.007812 18.78125 -23.582031 18.46875 -24.03125 C 18.164062 -24.476562 17.75 -24.828125 17.21875 -25.078125 C 16.6875 -25.335938 16.046875 -25.515625 15.296875 -25.609375 C 14.554688 -25.710938 13.75 -25.765625 12.875 -25.765625 Z M 17.265625 -27.703125 C 19.617188 -27.703125 21.269531 -27.28125 22.21875 -26.4375 C 23.175781 -25.59375 23.65625 -24.441406 23.65625 -22.984375 C 23.65625 -22.054688 23.421875 -21.195312 22.953125 -20.40625 C 22.492188 -19.625 21.867188 -18.894531 21.078125 -18.21875 C 20.296875 -17.550781 19.398438 -16.9375 18.390625 -16.375 C 17.378906 -15.8125 16.328125 -15.304688 15.234375 -14.859375 C 14.140625 -14.410156 13.046875 -14.007812 11.953125 -13.65625 C 10.859375 -13.3125 9.847656 -13.007812 8.921875 -12.75 L 8.921875 -5.046875 C 8.921875 -4.429688 8.945312 -3.847656 9 -3.296875 C 9.0625 -2.753906 9.191406 -2.28125 9.390625 -1.875 C 9.585938 -1.46875 9.867188 -1.128906 10.234375 -0.859375 C 10.597656 -0.597656 11.070312 -0.4375 11.65625 -0.375 L 11.65625 0 L 1.5625 0 L 1.5625 -0.375 C 2.175781 -0.457031 2.65625 -0.632812 3 -0.90625 C 3.351562 -1.175781 3.628906 -1.5 3.828125 -1.875 C 4.023438 -2.25 4.148438 -2.679688 4.203125 -3.171875 C 4.265625 -3.671875 4.296875 -4.1875 4.296875 -4.71875 L 4.296875 -22.640625 C 4.296875 -23.265625 4.257812 -23.84375 4.1875 -24.375 C 4.113281 -24.90625 3.984375 -25.378906 3.796875 -25.796875 C 3.617188 -26.222656 3.347656 -26.5625 2.984375 -26.8125 C 2.617188 -27.0625 2.144531 -27.226562 1.5625 -27.3125 L 1.5625 -27.703125 Z M 17.265625 -27.703125 "/></g></g></g><g fill="#eeebe9" fill-opacity="1"><g transform="translate(31.198536, 34.546482)"><g><path d="M 7.90625 -16.125 C 8.164062 -16.738281 8.539062 -17.347656 9.03125 -17.953125 C 9.519531 -18.554688 10.070312 -19.085938 10.6875 -19.546875 C 11.3125 -20.015625 11.972656 -20.394531 12.671875 -20.6875 C 13.367188 -20.976562 14.054688 -21.125 14.734375 -21.125 C 15.265625 -21.125 15.648438 -21.101562 15.890625 -21.0625 C 16.128906 -21.019531 16.332031 -20.972656 16.5 -20.921875 L 15.578125 -16.71875 C 14.679688 -17.300781 13.796875 -17.59375 12.921875 -17.59375 C 11.328125 -17.59375 10.097656 -16.941406 9.234375 -15.640625 C 8.378906 -14.335938 7.953125 -12.320312 7.953125 -9.59375 L 7.953125 -5.34375 C 7.953125 -4.5625 7.976562 -3.878906 8.03125 -3.296875 C 8.09375 -2.722656 8.207031 -2.234375 8.375 -1.828125 C 8.539062 -1.421875 8.789062 -1.097656 9.125 -0.859375 C 9.46875 -0.617188 9.921875 -0.457031 10.484375 -0.375 L 10.484375 0 L 1.140625 0 L 1.140625 -0.375 C 2.203125 -0.519531 2.882812 -0.984375 3.1875 -1.765625 C 3.5 -2.554688 3.65625 -3.550781 3.65625 -4.75 L 3.65625 -15.453125 C 3.65625 -16.628906 3.5 -17.625 3.1875 -18.4375 C 2.882812 -19.25 2.203125 -19.710938 1.140625 -19.828125 L 1.140625 -20.203125 L 6.953125 -20.75 C 7.253906 -20.050781 7.484375 -19.320312 7.640625 -18.5625 C 7.796875 -17.800781 7.882812 -16.988281 7.90625 -16.125 Z M 7.90625 -16.125 "/></g></g></g><g fill="#eeebe9" fill-opacity="1"><g transform="translate(46.351352, 34.546482)"><g><path d="M 12.921875 -19.15625 C 11.773438 -19.15625 10.78125 -18.9375 9.9375 -18.5 C 9.09375 -18.0625 8.40625 -17.46875 7.875 -16.71875 C 7.34375 -15.976562 6.945312 -15.117188 6.6875 -14.140625 C 6.4375 -13.160156 6.3125 -12.140625 6.3125 -11.078125 C 6.3125 -10.003906 6.4375 -8.90625 6.6875 -7.78125 C 6.945312 -6.664062 7.347656 -5.648438 7.890625 -4.734375 C 8.441406 -3.828125 9.148438 -3.078125 10.015625 -2.484375 C 10.890625 -1.890625 11.941406 -1.59375 13.171875 -1.59375 C 14.210938 -1.59375 15.140625 -1.832031 15.953125 -2.3125 C 16.765625 -2.789062 17.453125 -3.421875 18.015625 -4.203125 C 18.578125 -4.992188 19.003906 -5.894531 19.296875 -6.90625 C 19.585938 -7.914062 19.734375 -8.96875 19.734375 -10.0625 C 19.734375 -11.007812 19.628906 -12.015625 19.421875 -13.078125 C 19.210938 -14.148438 18.84375 -15.132812 18.3125 -16.03125 C 17.78125 -16.9375 17.078125 -17.679688 16.203125 -18.265625 C 15.335938 -18.859375 14.242188 -19.15625 12.921875 -19.15625 Z M 1.515625 -10.234375 C 1.515625 -11.910156 1.816406 -13.429688 2.421875 -14.796875 C 3.023438 -16.160156 3.851562 -17.3125 4.90625 -18.25 C 5.957031 -19.1875 7.191406 -19.90625 8.609375 -20.40625 C 10.023438 -20.914062 11.5625 -21.171875 13.21875 -21.171875 C 14.8125 -21.171875 16.296875 -20.9375 17.671875 -20.46875 C 19.046875 -20.007812 20.238281 -19.335938 21.25 -18.453125 C 22.257812 -17.566406 23.0625 -16.460938 23.65625 -15.140625 C 24.25 -13.828125 24.546875 -12.332031 24.546875 -10.65625 C 24.546875 -8.914062 24.234375 -7.359375 23.609375 -5.984375 C 22.992188 -4.609375 22.160156 -3.445312 21.109375 -2.5 C 20.054688 -1.5625 18.8125 -0.835938 17.375 -0.328125 C 15.945312 0.171875 14.421875 0.421875 12.796875 0.421875 C 11.191406 0.421875 9.703125 0.175781 8.328125 -0.3125 C 6.953125 -0.800781 5.757812 -1.5 4.75 -2.40625 C 3.738281 -3.320312 2.945312 -4.441406 2.375 -5.765625 C 1.800781 -7.085938 1.515625 -8.578125 1.515625 -10.234375 Z M 1.515625 -10.234375 "/></g></g></g><g fill="#eeebe9" fill-opacity="1"><g transform="translate(71.606099, 34.546482)"><g><path d="M 13.8125 -19.15625 C 12.570312 -19.09375 11.484375 -18.816406 10.546875 -18.328125 C 9.609375 -17.835938 8.820312 -17.191406 8.1875 -16.390625 C 7.550781 -15.597656 7.070312 -14.671875 6.75 -13.609375 C 6.425781 -12.554688 6.265625 -11.441406 6.265625 -10.265625 C 6.265625 -8.722656 6.535156 -7.410156 7.078125 -6.328125 C 7.628906 -5.253906 8.363281 -4.378906 9.28125 -3.703125 C 10.195312 -3.023438 11.226562 -2.53125 12.375 -2.21875 C 13.519531 -1.914062 14.6875 -1.765625 15.875 -1.765625 C 16.570312 -1.765625 17.328125 -1.863281 18.140625 -2.0625 L 18.140625 -14.90625 C 18.140625 -15.570312 18.082031 -16.175781 17.96875 -16.71875 C 17.863281 -17.269531 17.648438 -17.726562 17.328125 -18.09375 C 17.003906 -18.457031 16.5625 -18.726562 16 -18.90625 C 15.4375 -19.09375 14.707031 -19.175781 13.8125 -19.15625 Z M 22.4375 -28.796875 L 22.4375 -4.71875 C 22.4375 -4.070312 22.46875 -3.492188 22.53125 -2.984375 C 22.601562 -2.484375 22.726562 -2.039062 22.90625 -1.65625 C 23.09375 -1.28125 23.347656 -0.976562 23.671875 -0.75 C 23.992188 -0.53125 24.425781 -0.40625 24.96875 -0.375 L 24.96875 0 L 14.234375 0 C 11.867188 0 9.90625 -0.242188 8.34375 -0.734375 C 6.789062 -1.222656 5.523438 -2.003906 4.546875 -3.078125 C 3.648438 -4.003906 2.953125 -5.101562 2.453125 -6.375 C 1.960938 -7.65625 1.71875 -8.984375 1.71875 -10.359375 C 1.71875 -12.148438 2.015625 -13.722656 2.609375 -15.078125 C 3.203125 -16.441406 4.023438 -17.570312 5.078125 -18.46875 C 6.128906 -19.375 7.375 -20.050781 8.8125 -20.5 C 10.257812 -20.945312 11.851562 -21.171875 13.59375 -21.171875 C 13.789062 -21.171875 14.007812 -21.171875 14.25 -21.171875 C 14.488281 -21.171875 14.78125 -21.15625 15.125 -21.125 C 15.476562 -21.101562 15.894531 -21.078125 16.375 -21.046875 C 16.851562 -21.015625 17.441406 -20.972656 18.140625 -20.921875 L 18.140625 -22.984375 C 18.140625 -24.441406 17.941406 -25.523438 17.546875 -26.234375 C 17.160156 -26.953125 16.515625 -27.3125 15.609375 -27.3125 L 15.609375 -27.703125 Z M 22.4375 -28.796875 "/></g></g></g><g fill="#eeebe9" fill-opacity="1"><g transform="translate(96.860844, 34.546482)"><g><path d="M 8.25 -20.75 L 8.25 -7.78125 C 8.25 -5.820312 8.476562 -4.457031 8.9375 -3.6875 C 9.40625 -2.914062 10.203125 -2.53125 11.328125 -2.53125 C 11.492188 -2.53125 11.75 -2.550781 12.09375 -2.59375 C 12.445312 -2.632812 12.847656 -2.738281 13.296875 -2.90625 C 13.742188 -3.070312 14.210938 -3.316406 14.703125 -3.640625 C 15.203125 -3.960938 15.6875 -4.40625 16.15625 -4.96875 C 16.5 -5.363281 16.789062 -5.769531 17.03125 -6.1875 C 17.269531 -6.601562 17.457031 -7.0625 17.59375 -7.5625 C 17.738281 -8.070312 17.84375 -8.644531 17.90625 -9.28125 C 17.976562 -9.914062 18.015625 -10.640625 18.015625 -11.453125 L 18.015625 -15.484375 C 18.015625 -16.078125 17.984375 -16.632812 17.921875 -17.15625 C 17.867188 -17.675781 17.75 -18.125 17.5625 -18.5 C 17.382812 -18.875 17.128906 -19.179688 16.796875 -19.421875 C 16.460938 -19.660156 16.023438 -19.796875 15.484375 -19.828125 L 15.484375 -20.203125 L 22.3125 -20.75 L 22.3125 -4.71875 C 22.3125 -3.28125 22.5 -2.203125 22.875 -1.484375 C 23.257812 -0.773438 23.941406 -0.40625 24.921875 -0.375 L 24.921875 0 L 18.859375 0 C 18.378906 -1.238281 18.097656 -2.671875 18.015625 -4.296875 C 17.367188 -3.703125 16.691406 -3.117188 15.984375 -2.546875 C 15.285156 -1.972656 14.554688 -1.46875 13.796875 -1.03125 C 13.046875 -0.59375 12.269531 -0.242188 11.46875 0.015625 C 10.664062 0.285156 9.847656 0.421875 9.015625 0.421875 C 7.296875 0.421875 6.019531 -0.0859375 5.1875 -1.109375 C 4.363281 -2.140625 3.953125 -3.648438 3.953125 -5.640625 L 3.953125 -15.484375 C 3.953125 -16.078125 3.921875 -16.625 3.859375 -17.125 C 3.804688 -17.632812 3.6875 -18.078125 3.5 -18.453125 C 3.320312 -18.835938 3.066406 -19.144531 2.734375 -19.375 C 2.398438 -19.613281 1.96875 -19.765625 1.4375 -19.828125 L 1.4375 -20.203125 Z M 8.25 -20.75 "/></g></g></g><g fill="#eeebe9" fill-opacity="1"><g transform="translate(122.115588, 34.546482)"><g><path d="M 1.71875 -11.078125 C 1.71875 -12.535156 1.957031 -13.878906 2.4375 -15.109375 C 2.914062 -16.347656 3.585938 -17.414062 4.453125 -18.3125 C 5.328125 -19.207031 6.367188 -19.90625 7.578125 -20.40625 C 8.785156 -20.914062 10.117188 -21.171875 11.578125 -21.171875 C 12.023438 -21.171875 12.53125 -21.148438 13.09375 -21.109375 C 13.65625 -21.066406 14.203125 -21.007812 14.734375 -20.9375 C 15.265625 -20.875 15.753906 -20.816406 16.203125 -20.765625 C 16.648438 -20.722656 17.003906 -20.703125 17.265625 -20.703125 C 17.648438 -20.703125 17.960938 -20.726562 18.203125 -20.78125 C 18.441406 -20.84375 18.71875 -20.972656 19.03125 -21.171875 L 20.25 -14.6875 L 20 -14.5625 C 19.488281 -15.488281 18.945312 -16.253906 18.375 -16.859375 C 17.800781 -17.460938 17.210938 -17.929688 16.609375 -18.265625 C 16.003906 -18.609375 15.398438 -18.84375 14.796875 -18.96875 C 14.191406 -19.09375 13.625 -19.15625 13.09375 -19.15625 C 11.96875 -19.15625 10.984375 -18.90625 10.140625 -18.40625 C 9.296875 -17.914062 8.585938 -17.28125 8.015625 -16.5 C 7.441406 -15.71875 7.003906 -14.828125 6.703125 -13.828125 C 6.410156 -12.828125 6.265625 -11.8125 6.265625 -10.78125 C 6.265625 -9.226562 6.546875 -7.878906 7.109375 -6.734375 C 7.671875 -5.585938 8.363281 -4.632812 9.1875 -3.875 C 10.019531 -3.113281 10.910156 -2.539062 11.859375 -2.15625 C 12.816406 -1.78125 13.703125 -1.59375 14.515625 -1.59375 C 15.191406 -1.59375 15.875 -1.679688 16.5625 -1.859375 C 17.25 -2.046875 17.921875 -2.316406 18.578125 -2.671875 C 19.242188 -3.023438 19.851562 -3.472656 20.40625 -4.015625 C 20.96875 -4.566406 21.445312 -5.207031 21.84375 -5.9375 L 22.140625 -5.765625 L 20 0.296875 C 19.914062 0.234375 19.796875 0.179688 19.640625 0.140625 C 19.484375 0.0976562 19.304688 0.078125 19.109375 0.078125 C 18.910156 0.078125 18.671875 0.09375 18.390625 0.125 C 18.109375 0.15625 17.601562 0.195312 16.875 0.25 C 16.394531 0.3125 15.925781 0.351562 15.46875 0.375 C 15.007812 0.40625 14.625 0.421875 14.3125 0.421875 C 12.65625 0.421875 11.066406 0.171875 9.546875 -0.328125 C 8.035156 -0.835938 6.695312 -1.582031 5.53125 -2.5625 C 4.363281 -3.550781 3.4375 -4.757812 2.75 -6.1875 C 2.0625 -7.613281 1.71875 -9.242188 1.71875 -11.078125 Z M 1.71875 -11.078125 "/></g></g></g><g fill="#eeebe9" fill-opacity="1"><g transform="translate(144.003032, 34.546482)"><g><path d="M 7.109375 -28.03125 L 7.109375 -20.375 L 10.6875 -20.375 C 11.050781 -20.375 11.472656 -20.40625 11.953125 -20.46875 C 12.429688 -20.539062 12.835938 -20.75 13.171875 -21.09375 L 12 -18.09375 C 11.9375 -18.15625 11.800781 -18.25 11.59375 -18.375 C 11.382812 -18.5 11 -18.5625 10.4375 -18.5625 L 7.109375 -18.5625 L 7.109375 -6.0625 C 7.109375 -4.539062 7.335938 -3.484375 7.796875 -2.890625 C 8.265625 -2.304688 9.035156 -2.015625 10.109375 -2.015625 C 10.941406 -2.015625 11.679688 -2.179688 12.328125 -2.515625 C 12.972656 -2.859375 13.5625 -3.335938 14.09375 -3.953125 L 14.359375 -3.828125 L 12.921875 -0.375 C 12.109375 -0.125 11.257812 0.0664062 10.375 0.203125 C 9.488281 0.347656 8.597656 0.421875 7.703125 0.421875 C 6.972656 0.421875 6.304688 0.328125 5.703125 0.140625 C 5.097656 -0.0351562 4.582031 -0.347656 4.15625 -0.796875 C 3.738281 -1.242188 3.410156 -1.847656 3.171875 -2.609375 C 2.929688 -3.367188 2.8125 -4.320312 2.8125 -5.46875 L 2.8125 -18.5625 L 0.046875 -18.5625 L 0.046875 -18.9375 C 1.253906 -19.28125 2.144531 -19.957031 2.71875 -20.96875 C 3.289062 -21.976562 3.578125 -23.054688 3.578125 -24.203125 C 3.578125 -24.515625 3.554688 -24.835938 3.515625 -25.171875 C 3.472656 -25.503906 3.410156 -25.894531 3.328125 -26.34375 Z M 7.109375 -28.03125 "/></g></g></g><g fill="#eeebe9" fill-opacity="1"><g transform="translate(157.4722, 34.546482)"><g><path d="M 2.0625 -15.609375 C 2.0625 -16.617188 2.304688 -17.484375 2.796875 -18.203125 C 3.285156 -18.921875 3.914062 -19.492188 4.6875 -19.921875 C 5.457031 -20.359375 6.304688 -20.675781 7.234375 -20.875 C 8.160156 -21.070312 9.0625 -21.171875 9.9375 -21.171875 C 10.78125 -21.171875 11.554688 -21.117188 12.265625 -21.015625 C 12.984375 -20.921875 13.628906 -20.8125 14.203125 -20.6875 C 14.773438 -20.5625 15.269531 -20.445312 15.6875 -20.34375 C 16.113281 -20.25 16.457031 -20.203125 16.71875 -20.203125 C 17.082031 -20.203125 17.414062 -20.316406 17.71875 -20.546875 L 18.015625 -14.015625 L 17.71875 -13.96875 C 17.582031 -14.789062 17.265625 -15.519531 16.765625 -16.15625 C 16.273438 -16.800781 15.691406 -17.34375 15.015625 -17.78125 C 14.347656 -18.21875 13.613281 -18.554688 12.8125 -18.796875 C 12.019531 -19.035156 11.226562 -19.15625 10.4375 -19.15625 C 10.019531 -19.15625 9.570312 -19.113281 9.09375 -19.03125 C 8.613281 -18.945312 8.171875 -18.804688 7.765625 -18.609375 C 7.359375 -18.410156 7.019531 -18.140625 6.75 -17.796875 C 6.488281 -17.460938 6.359375 -17.03125 6.359375 -16.5 C 6.359375 -16 6.507812 -15.578125 6.8125 -15.234375 C 7.125 -14.898438 7.546875 -14.597656 8.078125 -14.328125 C 8.609375 -14.066406 9.21875 -13.828125 9.90625 -13.609375 C 10.59375 -13.398438 11.300781 -13.195312 12.03125 -13 C 12.988281 -12.726562 13.929688 -12.4375 14.859375 -12.125 C 15.785156 -11.8125 16.601562 -11.414062 17.3125 -10.9375 C 18.03125 -10.46875 18.609375 -9.894531 19.046875 -9.21875 C 19.484375 -8.539062 19.703125 -7.710938 19.703125 -6.734375 C 19.703125 -5.523438 19.425781 -4.472656 18.875 -3.578125 C 18.332031 -2.679688 17.625 -1.9375 16.75 -1.34375 C 15.882812 -0.757812 14.910156 -0.316406 13.828125 -0.015625 C 12.742188 0.273438 11.671875 0.421875 10.609375 0.421875 C 9.398438 0.421875 8.253906 0.316406 7.171875 0.109375 C 6.097656 -0.0976562 5.195312 -0.289062 4.46875 -0.46875 C 3.539062 -0.71875 2.945312 -0.84375 2.6875 -0.84375 C 2.4375 -0.84375 2.234375 -0.785156 2.078125 -0.671875 C 1.929688 -0.554688 1.785156 -0.414062 1.640625 -0.25 L 1.3125 -8.5 L 1.640625 -8.59375 C 1.785156 -7.5 2.101562 -6.519531 2.59375 -5.65625 C 3.082031 -4.800781 3.695312 -4.070312 4.4375 -3.46875 C 5.1875 -2.863281 6.03125 -2.398438 6.96875 -2.078125 C 7.90625 -1.753906 8.894531 -1.59375 9.9375 -1.59375 C 10.519531 -1.59375 11.132812 -1.675781 11.78125 -1.84375 C 12.425781 -2.019531 13.015625 -2.269531 13.546875 -2.59375 C 14.085938 -2.914062 14.53125 -3.320312 14.875 -3.8125 C 15.226562 -4.300781 15.40625 -4.867188 15.40625 -5.515625 C 15.40625 -6.046875 15.25 -6.5 14.9375 -6.875 C 14.632812 -7.257812 14.210938 -7.59375 13.671875 -7.875 C 13.140625 -8.15625 12.53125 -8.398438 11.84375 -8.609375 C 11.15625 -8.816406 10.421875 -9.035156 9.640625 -9.265625 C 8.710938 -9.515625 7.800781 -9.800781 6.90625 -10.125 C 6.007812 -10.445312 5.203125 -10.835938 4.484375 -11.296875 C 3.765625 -11.765625 3.179688 -12.347656 2.734375 -13.046875 C 2.285156 -13.742188 2.0625 -14.597656 2.0625 -15.609375 Z M 2.0625 -15.609375 "/></g></g></g></svg>